<svg width="160" height="160" viewBox="0 0 160 160" fill="none" xmlns="http://www.w3.org/2000/svg">
<g clip-path="url(#clip0_20298_27840)">
<rect x="19" y="42" width="102" height="79" rx="6" fill="#383838"/>
<rect x="19" y="42" width="102" height="79" rx="6" stroke="#383838" stroke-width="2"/>
<g clip-path="url(#clip1_20298_27840)">
<rect x="26" y="33" width="104" height="81" rx="7" fill="#16AA98"/>
<rect x="16" y="34" width="120" height="15" fill="white"/>
<rect x="16" y="34" width="120" height="15" stroke="#383838" stroke-width="2"/>
<circle cx="36" cy="42" r="2" fill="#383838"/>
<circle cx="44" cy="42" r="2" fill="#383838"/>
<circle cx="52" cy="42" r="2" fill="#383838"/>
<path d="M42 63H71" stroke="#383838" stroke-width="2"/>
<path d="M42 95H71" stroke="#383838" stroke-width="2"/>
<path d="M49 71H103" stroke="#383838" stroke-width="2"/>
<path d="M49 87H95" stroke="#383838" stroke-width="2"/>
<path d="M58 79H107" stroke="#383838" stroke-width="2"/>
</g>
<rect x="27" y="34" width="102" height="79" rx="6" stroke="#383838" stroke-width="2"/>
<g clip-path="url(#clip2_20298_27840)">
<rect x="92" y="95" width="52" height="40" rx="7" fill="white"/>
<line x1="100.5" y1="94.9707" x2="100.5" y2="142.378" stroke="#E0E0E0" stroke-width="2"/>
<line x1="144" y1="101.897" x2="92" y2="101.897" stroke="#E0E0E0" stroke-width="2"/>
<line x1="127.5" y1="94.9707" x2="127.5" y2="142.378" stroke="#E0E0E0" stroke-width="2"/>
<line x1="144" y1="128.564" x2="92" y2="128.564" stroke="#E0E0E0" stroke-width="2"/>
<line x1="109.499" y1="94.9707" x2="109.499" y2="142.378" stroke="#E0E0E0" stroke-width="2"/>
<line x1="144" y1="110.786" x2="92" y2="110.786" stroke="#E0E0E0" stroke-width="2"/>
<line x1="136.5" y1="94.9707" x2="136.5" y2="142.378" stroke="#E0E0E0" stroke-width="2"/>
<line x1="118.5" y1="94.9707" x2="118.5" y2="142.378" stroke="#E0E0E0" stroke-width="2"/>
<line x1="144" y1="119.677" x2="92" y2="119.677" stroke="#E0E0E0" stroke-width="2"/>
<path d="M99.0866 119.208L91.1175 127.104C90.7384 127.48 90.5251 127.991 90.5251 128.525V135.181C90.5251 136.286 91.4206 137.181 92.5251 137.181H143.844C144.949 137.181 145.844 136.286 145.844 135.181V106.342C145.844 104.565 143.699 103.67 142.437 104.921L128.291 118.937C127.511 119.709 126.255 119.709 125.476 118.937L119.69 113.204C118.911 112.432 117.654 112.432 116.875 113.204L107.766 122.229C106.987 123.002 105.73 123.002 104.951 122.229L101.902 119.208C101.122 118.436 99.8662 118.436 99.0866 119.208Z" fill="white" stroke="#383838" stroke-width="2"/>
</g>
<rect x="93" y="96" width="50" height="38" rx="6" stroke="#383838" stroke-width="2"/>
<path d="M138.146 12.9896C138.884 12.2418 140.116 12.2418 140.854 12.9896L145.052 17.2457C145.744 17.9474 145.744 19.0528 145.052 19.7546L140.854 24.0107C140.116 24.7585 138.884 24.7585 138.146 24.0107L133.948 19.7546C133.256 19.0528 133.256 17.9474 133.948 17.2457L138.146 12.9896Z" fill="white" stroke="#383838" stroke-width="2" stroke-miterlimit="10"/>
<path d="M7.27795 29.0608C7.67137 28.662 8.32863 28.662 8.72205 29.0608L10.9612 31.3308C11.3304 31.705 11.3304 32.2946 10.9612 32.6689L8.72205 34.9388C8.32863 35.3376 7.67137 35.3376 7.27795 34.9388L5.03879 32.6689C4.6696 32.2946 4.6696 31.705 5.0388 31.3308L7.27795 29.0608Z" fill="white" stroke="#383838" stroke-width="2" stroke-miterlimit="10"/>
<path d="M53.3036 133.042C54.7175 132.844 56.0774 133.238 57.1303 134.036C57.9239 132.979 59.1231 132.225 60.537 132.027C63.3516 131.631 65.9516 133.586 66.3442 136.393C66.4931 137.458 66.3031 138.492 65.8563 139.387C66.5315 140.125 66.9979 141.067 67.1467 142.131C67.5393 144.938 65.5759 147.533 62.7613 147.929C61.3473 148.127 59.9875 147.733 58.9345 146.935C58.1409 147.992 56.9418 148.746 55.5278 148.944C52.7132 149.339 50.1132 147.384 49.7207 144.578C49.5718 143.513 49.7617 142.479 50.2085 141.584C49.5333 140.846 49.067 139.904 48.9181 138.84C48.5255 136.033 50.489 133.437 53.3036 133.042Z" stroke="#383838" stroke-width="2"/>
</g>
<defs>
<clipPath id="clip0_20298_27840">
<rect width="160" height="160" fill="white"/>
</clipPath>
<clipPath id="clip1_20298_27840">
<rect x="26" y="33" width="104" height="81" rx="7" fill="white"/>
</clipPath>
<clipPath id="clip2_20298_27840">
<rect x="92" y="95" width="52" height="40" rx="7" fill="white"/>
</clipPath>
</defs>
</svg>
