<svg width="160" height="160" viewBox="0 0 160 160" fill="none" xmlns="http://www.w3.org/2000/svg">
<rect x="12" y="56" width="102" height="79" rx="6" fill="#383838"/>
<rect x="12" y="56" width="102" height="79" rx="6" stroke="#383838" stroke-width="2"/>
<g clip-path="url(#clip0_20298_28416)">
<rect x="19" y="47" width="104" height="81" rx="7" fill="#FFDE00"/>
<rect x="9" y="48" width="120" height="15" fill="#F4EFEA"/>
<rect x="9" y="48" width="120" height="15" stroke="#383838" stroke-width="2"/>
<circle cx="29" cy="56" r="2" fill="#383838"/>
<circle cx="37" cy="56" r="2" fill="#383838"/>
<circle cx="45" cy="56" r="2" fill="#383838"/>
<path d="M35 77H64" stroke="#383838" stroke-width="2"/>
<path d="M35 109H64" stroke="#383838" stroke-width="2"/>
<path d="M42 85H96" stroke="#383838" stroke-width="2"/>
<path d="M42 101H88" stroke="#383838" stroke-width="2"/>
<path d="M51 93H100" stroke="#383838" stroke-width="2"/>
</g>
<rect x="20" y="48" width="102" height="79" rx="6" stroke="#383838" stroke-width="2"/>
<path d="M15.9169 10.5913C16.507 9.99302 17.4929 9.99302 18.083 10.5913L21.4418 13.9962C21.9956 14.5576 21.9956 15.4419 21.4418 16.0033L18.083 19.4082C17.4929 20.0064 16.507 20.0064 15.9169 19.4082L12.5582 16.0033C12.0044 15.4419 12.0044 14.5576 12.5582 13.9962L15.9169 10.5913Z" fill="#F4EFEA" stroke="#383838" stroke-width="2" stroke-miterlimit="10"/>
<path d="M78.7969 110.173L119.001 110.173C127.285 110.173 134.001 103.457 134.001 95.1729L134.001 44" stroke="#383838" stroke-width="2" stroke-miterlimit="3.99933" stroke-dasharray="4 4"/>
<circle cx="3" cy="3" r="3" transform="matrix(0.999543 0.0302129 0.0302129 -0.999543 74.2969 112.997)" fill="#383838"/>
<path d="M132.813 135.289C136.046 133.657 139.284 132.906 141.879 132.97C144.521 133.035 146.225 133.918 146.885 135.226C147.545 136.534 147.243 138.429 145.726 140.593C144.236 142.719 141.709 144.877 138.476 146.509C135.243 148.141 132.004 148.892 129.41 148.828C126.768 148.763 125.063 147.88 124.403 146.572C123.743 145.264 124.045 143.369 125.563 141.205C127.052 139.079 129.58 136.92 132.813 135.289Z" fill="#F4EFEA" stroke="#383838" stroke-width="2"/>
<path d="M132.402 11.2002L117.402 35.7999L118.602 38.7998H147.402L148.602 36.3999L134.202 11.2002H132.402Z" fill="white"/>
<path fill-rule="evenodd" clip-rule="evenodd" d="M132.994 20.8002C133.657 20.8002 134.194 21.3375 134.194 22.0002V28.0001C134.194 28.6629 133.657 29.2001 132.994 29.2001C132.332 29.2001 131.794 28.6629 131.794 28.0001V22.0002C131.794 21.3375 132.332 20.8002 132.994 20.8002Z" fill="#383838"/>
<path fill-rule="evenodd" clip-rule="evenodd" d="M131.196 10.4837C131.742 10.1669 132.363 10 132.994 10C133.626 10 134.246 10.1669 134.793 10.4837C135.338 10.8 135.791 11.2546 136.104 11.8015C136.105 11.8025 136.105 11.8034 136.106 11.8043L149.303 34.6001C149.619 35.1464 149.785 35.766 149.786 36.3969C149.786 37.0277 149.621 37.6476 149.307 38.1945C148.992 38.7414 148.54 39.1961 147.994 39.5129C147.449 39.8298 146.829 39.9978 146.199 40L146.194 40H119.795L119.79 40C119.16 39.9978 118.54 39.8298 117.995 39.5129C117.449 39.1961 116.997 38.7414 116.682 38.1945C116.368 37.6476 116.203 37.0277 116.203 36.3969C116.204 35.766 116.37 35.1464 116.685 34.6001L129.883 11.8043C129.884 11.8034 129.884 11.8025 129.885 11.8015C130.198 11.2546 130.651 10.8 131.196 10.4837ZM130.924 12.4003L131.963 13.0016L118.764 35.8001C118.764 35.8002 118.764 35.7999 118.764 35.8001C118.659 35.9821 118.603 36.1889 118.603 36.399C118.603 36.6093 118.658 36.8159 118.763 36.9982C118.868 37.1805 119.019 37.3321 119.2 37.4377C119.382 37.543 119.588 37.599 119.797 37.6H146.192C146.401 37.599 146.607 37.543 146.789 37.4377C146.97 37.3321 147.121 37.1805 147.226 36.9982C147.331 36.8159 147.386 36.6093 147.386 36.399C147.386 36.189 147.33 35.9827 147.225 35.8008C147.225 35.8005 147.226 35.801 147.225 35.8008L134.023 12.9964C133.919 12.8152 133.77 12.6646 133.589 12.5599C133.408 12.4551 133.203 12.4 132.994 12.4C132.786 12.4 132.581 12.4551 132.4 12.5599C132.219 12.6646 132.07 12.8152 131.966 12.9964L130.924 12.4003Z" fill="#383838"/>
<path d="M132.994 35.2001C133.989 35.2001 134.794 34.3942 134.794 33.4001C134.794 32.406 133.989 31.6001 132.994 31.6001C132 31.6001 131.194 32.406 131.194 33.4001C131.194 34.3942 132 35.2001 132.994 35.2001Z" fill="#383838"/>
<path d="M133.862 59.4737L134.264 59.9434L134.864 59.7939L135.034 59.751L135.049 59.9267L135.098 60.5427L135.671 60.7742L135.834 60.8398L135.743 60.9906L135.42 61.5176L135.748 62.0424L135.841 62.1903L135.679 62.2585L135.108 62.4958L135.065 63.1132L135.052 63.2881L134.881 63.2479L134.28 63.1035L133.883 63.5782L133.769 63.7125L133.655 63.5793L133.252 63.1087L132.653 63.2592L132.482 63.3011L132.468 63.1263L132.418 62.5094L131.846 62.2779L131.682 62.2113L131.774 62.0624L132.096 61.5344L131.769 61.0107L131.675 60.8608L131.838 60.7935L132.408 60.5563L132.452 59.9398L132.464 59.764L132.635 59.8051L133.236 59.9486L133.634 59.4749L133.747 59.3395L133.862 59.4737Z" fill="#383838" stroke="#383838" stroke-width="2"/>
<defs>
<clipPath id="clip0_20298_28416">
<rect x="19" y="47" width="104" height="81" rx="7" fill="white"/>
</clipPath>
</defs>
</svg>
