<svg width="160" height="160" viewBox="0 0 160 160" fill="none" xmlns="http://www.w3.org/2000/svg">
<rect x="24" y="50" width="102" height="79" rx="6" fill="#383838"/>
<rect x="24" y="50" width="102" height="79" rx="6" stroke="#383838" stroke-width="2"/>
<g clip-path="url(#clip0_20298_28386)">
<rect x="31.957" y="45" width="98.8642" height="77" rx="6.65432" fill="#F4EFEA"/>
<rect x="22.4506" y="45.9506" width="114.074" height="14.2593" fill="#F4EFEA"/>
<rect x="22.4506" y="45.9506" width="114.074" height="14.2593" stroke="#383838" stroke-width="1.90123"/>
<circle cx="41.4637" cy="53.5555" r="1.90123" fill="#383838"/>
<circle cx="49.0672" cy="53.5555" r="1.90123" fill="#383838"/>
<circle cx="56.6727" cy="53.5555" r="1.90123" fill="#383838"/>
<rect x="115.612" y="74.4692" width="26.6173" height="19.0123" rx="0.950617" transform="rotate(90 115.612 74.4692)" fill="#F4EFEA" stroke="#383838" stroke-width="1.90123"/>
<rect x="90.8951" y="80.1733" width="20.9136" height="19.0123" rx="0.950617" transform="rotate(90 90.8951 80.1733)" fill="white" stroke="#383838" stroke-width="1.90123"/>
<rect x="66.1783" y="69.7162" width="31.3704" height="19.0123" rx="0.950617" transform="rotate(90 66.1783 69.7162)" fill="#F4EFEA" stroke="#383838" stroke-width="1.90123"/>
</g>
<rect x="32.9076" y="45.9506" width="96.963" height="75.0988" rx="5.7037" stroke="#383838" stroke-width="1.90123"/>
<path d="M141.278 143.061C141.671 142.662 142.329 142.662 142.722 143.061L144.961 145.331C145.33 145.705 145.33 146.295 144.961 146.669L142.722 148.939C142.329 149.338 141.671 149.338 141.278 148.939L139.039 146.669C138.67 146.295 138.67 145.705 139.039 145.331L141.278 143.061Z" fill="white" stroke="#383838" stroke-width="2" stroke-miterlimit="10"/>
<path d="M48 121.344C48 125.147 38.598 128.229 27 128.229C15.402 128.229 6 125.147 6 121.344C6 117.542 15.402 114.459 27 114.459C38.598 114.459 48 117.542 48 121.344Z" fill="#FFDE00"/>
<path d="M48 121.344C48 125.147 38.598 128.229 27 128.229C15.402 128.229 6 125.147 6 121.344V135.115C6 138.917 15.402 142 27 142C38.598 142 48 138.917 48 135.115V121.344Z" fill="#FFDE00"/>
<path d="M48 121.344C48 125.147 38.598 128.229 27 128.229C15.402 128.229 6 125.147 6 121.344M48 121.344C48 117.542 38.598 114.459 27 114.459C15.402 114.459 6 117.542 6 121.344M48 121.344V135.115C48 138.917 38.598 142 27 142C15.402 142 6 138.917 6 135.115V121.344" stroke="#383838" stroke-width="2" stroke-miterlimit="10"/>
<path d="M48 107.057C48 110.955 38.598 114.115 27 114.115C15.402 114.115 6 110.955 6 107.057C6 103.16 15.402 100 27 100C38.598 100 48 103.16 48 107.057Z" fill="#FFDE00"/>
<path d="M48 107.057C48 110.955 38.598 114.115 27 114.115C15.402 114.115 6 110.955 6 107.057V121.172C6 125.07 15.402 128.23 27 128.23C38.598 128.23 48 125.07 48 121.172V107.057Z" fill="#FFDE00"/>
<path d="M48 107.057C48 110.955 38.598 114.115 27 114.115C15.402 114.115 6 110.955 6 107.057M48 107.057C48 103.16 38.598 100 27 100C15.402 100 6 103.16 6 107.057M48 107.057V121.172C48 125.07 38.598 128.23 27 128.23C15.402 128.23 6 125.07 6 121.172V107.057" stroke="#383838" stroke-width="2" stroke-miterlimit="10"/>
<path d="M21.2516 15.4677C22.5069 16.0597 23.4056 17.1011 23.8422 18.3044C25.045 17.8742 26.4182 17.9042 27.6735 18.4962C30.1723 19.6746 31.2581 22.6337 30.0986 25.1055C29.6588 26.0429 28.9593 26.7756 28.124 27.2597C28.2847 28.2136 28.1679 29.2211 27.7282 30.1585C26.5687 32.6303 23.603 33.6788 21.1042 32.5004C19.8488 31.9084 18.9501 30.867 18.5136 29.6637C17.3108 30.0939 15.9376 30.0639 14.6823 29.4719C12.1834 28.2935 11.0977 25.3344 12.2572 22.8626C12.6969 21.9252 13.3965 21.1925 14.2318 20.7083C14.071 19.7545 14.1878 18.747 14.6276 17.8096C15.7871 15.3378 18.7528 14.2893 21.2516 15.4677Z" fill="#F4EFEA" stroke="#383838" stroke-width="2"/>
<g clip-path="url(#clip1_20298_28386)">
<rect x="114" y="35.2305" width="41" height="31.5385" rx="5.51923" fill="white"/>
<line x1="120.703" y1="35.208" x2="120.703" y2="72.5869" stroke="#E0E0E0" stroke-width="1.57692"/>
<line x1="155" y1="40.6683" x2="114" y2="40.6683" stroke="#E0E0E0" stroke-width="1.57692"/>
<line x1="141.99" y1="35.208" x2="141.99" y2="72.5869" stroke="#E0E0E0" stroke-width="1.57692"/>
<line x1="155" y1="61.6947" x2="114" y2="61.6947" stroke="#E0E0E0" stroke-width="1.57692"/>
<line x1="127.798" y1="35.208" x2="127.798" y2="72.5869" stroke="#E0E0E0" stroke-width="1.57692"/>
<line x1="155" y1="47.6771" x2="114" y2="47.6771" stroke="#E0E0E0" stroke-width="1.57692"/>
<line x1="149.087" y1="35.208" x2="149.087" y2="72.5869" stroke="#E0E0E0" stroke-width="1.57692"/>
<line x1="134.894" y1="35.208" x2="134.894" y2="72.5869" stroke="#E0E0E0" stroke-width="1.57692"/>
<line x1="155" y1="54.6869" x2="114" y2="54.6869" stroke="#E0E0E0" stroke-width="1.57692"/>
<path d="M119.588 54.3176L113.305 60.5432C113.006 60.8393 112.838 61.2426 112.838 61.6634V66.9116C112.838 67.7825 113.544 68.4885 114.415 68.4885H154.878C155.749 68.4885 156.455 67.7825 156.455 66.9116V44.1729C156.455 42.7715 154.764 42.0664 153.768 43.0527L142.615 54.1034C142 54.7124 141.01 54.7124 140.395 54.1034L135.833 49.5837C135.219 48.9747 134.228 48.9748 133.614 49.5837L126.432 56.6994C125.817 57.3084 124.827 57.3084 124.212 56.6994L121.808 54.3176C121.193 53.7086 120.203 53.7086 119.588 54.3176Z" fill="#FFDE00" stroke="#383838" stroke-width="1.57692"/>
</g>
<rect x="114.788" y="36.0189" width="39.4231" height="29.9615" rx="4.73077" stroke="#383838" stroke-width="1.57692"/>
<path d="M133.5 111.23L138.419 111.23C143.384 111.23 147.419 107.224 147.456 102.259L147.708 68.3098" stroke="#383838" stroke-width="2.245" stroke-miterlimit="3.99933" stroke-dasharray="2.41 2.41"/>
<circle cx="1.96727" cy="1.96727" r="1.96727" transform="matrix(0.999543 0.0302129 0.0302129 -0.999543 131.645 113.208)" fill="#383838"/>
<defs>
<clipPath id="clip0_20298_28386">
<rect x="31.957" y="45" width="98.8642" height="77" rx="6.65432" fill="white"/>
</clipPath>
<clipPath id="clip1_20298_28386">
<rect x="114" y="35.2305" width="41" height="31.5385" rx="5.51923" fill="white"/>
</clipPath>
</defs>
</svg>
