<svg width="160" height="160" viewBox="0 0 160 160" fill="none" xmlns="http://www.w3.org/2000/svg">
<rect x="27.7578" y="92" width="64" height="50" rx="4" fill="#383838"/>
<path d="M103.873 30.8898C101.622 30.8898 99.3037 30.097 97.788 28.4322C93.2897 23.4914 86.6632 20.3643 79.2214 20.3643C72.1839 20.3643 65.845 23.1546 61.381 27.6507C59.1715 29.8761 55.8758 30.8898 52.7398 30.8898C45.2287 30.8898 39.0657 36.7066 39.0657 44.0006C39.0657 51.2947 45.1324 57.1114 52.7398 57.1114C55.8841 57.1114 59.1862 58.1065 61.4044 60.335C65.8887 64.8402 72.1758 67.637 79.2214 67.637C86.5913 67.637 93.212 64.5022 97.7658 59.5509C99.2928 57.8907 101.618 57.1114 103.873 57.1114C111.384 57.1114 117.547 51.2947 117.547 44.0006C117.547 36.7066 111.384 30.8898 103.873 30.8898Z" fill="#FF7169" stroke="#383838" stroke-width="2" stroke-miterlimit="10"/>
<path d="M84 108L125.001 107.998C133.285 107.998 140 101.282 140 92.9984V56.6087C140 48.5405 133.459 42 125.391 42" stroke="#383838" stroke-width="2" stroke-miterlimit="3.99933" stroke-dasharray="4 4"/>
<path d="M128.088 43.1797C128.138 41.5236 126.836 40.1405 125.18 40.0904C123.524 40.0404 122.141 41.3423 122.091 42.9984C122.041 44.6545 123.343 46.0377 124.999 46.0877C126.655 46.1378 128.038 44.8358 128.088 43.1797Z" fill="#383838"/>
<g clip-path="url(#clip0_20298_28481)">
<rect x="31.7578" y="89" width="64" height="50" rx="4" fill="#F4EFEA"/>
<rect x="26.7148" y="84.9785" width="72.029" height="17.6404" fill="white"/>
<rect x="26.7148" y="84.9785" width="72.029" height="17.6404" stroke="#383838" stroke-width="2"/>
<circle cx="39.7578" cy="96.4785" r="2" fill="#383838"/>
<circle cx="46.7578" cy="96.4785" r="2" fill="#383838"/>
<circle cx="53.7578" cy="96.4785" r="2" fill="#383838"/>
<path d="M42.334 113.173H61.9743" stroke="#383838" stroke-width="2"/>
<path d="M49.8867 120.727H86.1458" stroke="#383838" stroke-width="2"/>
<path d="M42.334 128.281H74.0607" stroke="#383838" stroke-width="2"/>
</g>
<rect x="32.7578" y="90" width="62" height="48" rx="3" stroke="#383838" stroke-width="2"/>
<path d="M13.7124 13.2903C14.7022 13.1649 15.6541 13.4141 16.3912 13.9179C16.9467 13.2503 17.7861 12.7742 18.7759 12.6488C20.7461 12.3992 22.5661 13.6339 22.8409 15.4066C22.9451 16.0789 22.8121 16.732 22.4994 17.2974C22.972 17.7633 23.2984 18.3582 23.4027 19.0305C23.6775 20.8032 22.3031 22.4426 20.3328 22.6922C19.343 22.8176 18.3912 22.5683 17.6541 22.0645C17.0986 22.7321 16.2592 23.2082 15.2694 23.3336C13.2992 23.5832 11.4792 22.3485 11.2044 20.5758C11.1002 19.9035 11.2332 19.2504 11.5459 18.685C11.0733 18.2191 10.7468 17.6242 10.6426 16.9519C10.3678 15.1792 11.7422 13.5399 13.7124 13.2903Z" fill="#F4EFEA" stroke="#383838" stroke-width="2"/>
<path d="M36.5135 135.618C36.5135 138.579 30.5782 140.979 23.2567 140.979C15.9352 140.979 10 138.579 10 135.618C10 132.658 15.9352 130.258 23.2567 130.258C30.5782 130.258 36.5135 132.658 36.5135 135.618Z" fill="#FF7169"/>
<path d="M36.5135 135.618C36.5135 138.579 30.5782 140.979 23.2567 140.979C15.9352 140.979 10 138.579 10 135.618V146.34C10 149.3 15.9352 151.7 23.2567 151.7C30.5782 151.7 36.5135 149.3 36.5135 146.34V135.618Z" fill="#FF7169"/>
<path d="M36.5135 135.618C36.5135 138.579 30.5782 140.979 23.2567 140.979C15.9352 140.979 10 138.579 10 135.618M36.5135 135.618C36.5135 132.658 30.5782 130.258 23.2567 130.258C15.9352 130.258 10 132.658 10 135.618M36.5135 135.618V146.34C36.5135 149.3 30.5782 151.7 23.2567 151.7C15.9352 151.7 10 149.3 10 146.34V135.618" stroke="#383838" stroke-width="2" stroke-miterlimit="10"/>
<path d="M36.5135 124.495C36.5135 127.529 30.5782 129.989 23.2567 129.989C15.9352 129.989 10 127.529 10 124.495C10 121.46 15.9352 119 23.2567 119C30.5782 119 36.5135 121.46 36.5135 124.495Z" fill="#FF7169"/>
<path d="M36.5135 124.495C36.5135 127.529 30.5782 129.989 23.2567 129.989C15.9352 129.989 10 127.529 10 124.495V135.484C10 138.519 15.9352 140.979 23.2567 140.979C30.5782 140.979 36.5135 138.519 36.5135 135.484V124.495Z" fill="#FF7169"/>
<path d="M36.5135 124.495C36.5135 127.529 30.5782 129.989 23.2567 129.989C15.9352 129.989 10 127.529 10 124.495M36.5135 124.495C36.5135 121.46 30.5782 119 23.2567 119C15.9352 119 10 121.46 10 124.495M36.5135 124.495V135.484C36.5135 138.519 30.5782 140.979 23.2567 140.979C15.9352 140.979 10 138.519 10 135.484V124.495" stroke="#383838" stroke-width="2" stroke-miterlimit="10"/>
<rect x="121" y="83" width="32" height="32" rx="4.05556" fill="#F4EFEA"/>
<rect x="121" y="83" width="32" height="32" rx="4.05556" stroke="#383838" stroke-width="2"/>
<path d="M136.784 96.936L136.6 97.8853L140.084 98.6338L134.751 105.8L135.956 101.262L136.223 100.26L132.597 99.4817L137.78 91.7903L136.784 96.936Z" fill="#383838" stroke="#383838" stroke-width="1.97476"/>
<defs>
<clipPath id="clip0_20298_28481">
<rect x="31.7578" y="89" width="64" height="50" rx="4" fill="white"/>
</clipPath>
</defs>
</svg>
