<svg width="160" height="160" viewBox="0 0 160 160" fill="none" xmlns="http://www.w3.org/2000/svg">
<path d="M108 86C118.493 86 127 94.5066 127 105V122" stroke="#383838" stroke-width="2" stroke-miterlimit="3.99933" stroke-dasharray="4 4"/>
<path d="M49 71C37.9543 71 29 62.0457 29 51L29 37" stroke="#383838" stroke-width="2" stroke-miterlimit="3.99933" stroke-dasharray="4 4"/>
<path d="M49.0654 89.4358L91.221 31.541L80.7551 76.7099L99.1633 81.3675L54.3104 137.297L67.4736 94.0934L49.0654 89.4358Z" fill="#383838"/>
<path d="M84.9768 70.0504L84.7553 71.0057L102.606 75.5221L61.9761 126.184L73.6259 87.9517L73.9312 86.9481L55.9395 82.3959L94.3335 29.6654L84.9768 70.0504Z" fill="#FF7169" stroke="#383838" stroke-width="2"/>
<path d="M139.937 124.444C138.811 124.444 137.652 124.048 136.894 123.216C134.645 120.745 131.332 119.182 127.611 119.182C124.092 119.182 120.922 120.577 118.69 122.825C117.586 123.938 115.938 124.444 114.37 124.444C110.614 124.444 107.533 127.353 107.533 131C107.533 134.647 110.566 137.555 114.37 137.555C115.942 137.555 117.593 138.053 118.702 139.167C120.944 141.42 124.088 142.818 127.611 142.818C131.296 142.818 134.606 141.251 136.883 138.775C137.646 137.945 138.809 137.555 139.937 137.555C143.692 137.555 146.774 134.647 146.774 131C146.774 127.353 143.692 124.444 139.937 124.444Z" fill="white" stroke="#383838" stroke-width="2" stroke-miterlimit="10"/>
<path d="M20.2312 18.3934C20.7134 16.664 22.2889 15.4678 24.0842 15.4678H41.0158C43.6628 15.4678 45.5798 17.9925 44.8688 20.5422L40.6933 35.5163C40.2111 37.2457 38.6357 38.4419 36.8403 38.4419H19.9087C17.2618 38.4419 15.3448 35.9172 16.0557 33.3675L20.2312 18.3934Z" fill="white" stroke="#383838" stroke-width="2" stroke-miterlimit="10"/>
<path d="M110.278 31.0608C110.671 30.662 111.329 30.662 111.722 31.0608L113.961 33.3308C114.33 33.705 114.33 34.2946 113.961 34.6689L111.722 36.9388C111.329 37.3376 110.671 37.3376 110.278 36.9388L108.039 34.6689C107.67 34.2946 107.67 33.705 108.039 33.3308L110.278 31.0608Z" stroke="#383838" stroke-width="2" stroke-miterlimit="10"/>
<path d="M90.278 104.061C90.6714 103.662 91.3287 103.662 91.7221 104.061L93.9613 106.331C94.3305 106.705 94.3305 107.295 93.9613 107.669L91.7221 109.939C91.3287 110.338 90.6714 110.338 90.278 109.939L88.0389 107.669C87.6697 107.295 87.6697 106.705 88.0389 106.331L90.278 104.061Z" stroke="#383838" stroke-width="2" stroke-miterlimit="10"/>
<path d="M43.0974 124.326C43.5892 123.828 44.4108 123.828 44.9026 124.326L47.7015 127.163C48.163 127.631 48.163 128.368 47.7015 128.836L44.9026 131.673C44.4108 132.172 43.5892 132.172 43.0974 131.673L40.2985 128.836C39.837 128.368 39.837 127.631 40.2985 127.163L43.0974 124.326Z" stroke="#383838" stroke-width="2" stroke-miterlimit="10"/>
<path d="M63.1462 44.9896C63.8838 44.2418 65.1162 44.2418 65.8539 44.9896L70.0523 49.2457C70.7445 49.9474 70.7445 51.0528 70.0523 51.7546L65.8539 56.0107C65.1162 56.7585 63.8838 56.7585 63.1462 56.0107L58.9478 51.7546C58.2555 51.0528 58.2555 49.9474 58.9478 49.2457L63.1462 44.9896Z" fill="white" stroke="#383838" stroke-width="2" stroke-miterlimit="10"/>
<circle cx="108" cy="86" r="3" fill="#383838"/>
<circle cx="49" cy="71" r="3" fill="#383838"/>
</svg>
