<svg width="160" height="160" viewBox="0 0 160 160" fill="none" xmlns="http://www.w3.org/2000/svg">
<path d="M27.5 27.5C31 40.1667 47.1 68 83.5 78" stroke="#383838" stroke-width="2"/>
<path d="M133 22.4998C112.333 15.4998 74 16.6998 86 77.4998" stroke="#383838" stroke-width="2"/>
<path d="M125.5 119.5C144 104.5 165 67.5005 87.5001 80.0004" stroke="#383838" stroke-width="2"/>
<path d="M27.5 139C45.1667 133.833 81.2 114.4 84 78" stroke="#383838" stroke-width="2"/>
<rect x="36" y="46" width="78" height="78" rx="11" fill="#383838"/>
<rect x="36" y="46" width="78" height="78" rx="11" stroke="#383838" stroke-width="2"/>
<g clip-path="url(#clip0_20298_27976)">
<rect x="44" y="36" width="80" height="80" rx="12" fill="#F4EFEA"/>
<line x1="136" y1="48" x2="32" y2="48" stroke="#D8D1CB" stroke-width="2"/>
<line x1="136" y1="66" x2="32" y2="66" stroke="#D8D1CB" stroke-width="2"/>
<line x1="136" y1="84" x2="32" y2="84" stroke="#D8D1CB" stroke-width="2"/>
<line x1="136" y1="102" x2="32" y2="102" stroke="#D8D1CB" stroke-width="2"/>
<line x1="57" y1="28" x2="57" y2="124" stroke="#D8D1CB" stroke-width="2"/>
<line x1="75" y1="28" x2="75" y2="124" stroke="#D8D1CB" stroke-width="2"/>
<line x1="93" y1="28" x2="93" y2="124" stroke="#D8D1CB" stroke-width="2"/>
<line x1="111" y1="28" x2="111" y2="124" stroke="#D8D1CB" stroke-width="2"/>
<path d="M57.1312 84.5909C57.1312 84.5909 72.9418 95.9211 73.903 96.4859C74.8311 97.0508 76.1901 97.1837 77.3833 96.7185C78.5766 96.2534 79.4715 95.1901 79.7367 94.1269C80.035 93.0636 83.6479 73.9252 83.6479 73.9252C83.6811 73.6594 83.7805 72.8952 83.3828 72.1642C82.8193 71.1674 81.5597 70.6358 80.4328 70.968C79.5378 71.2338 79.0738 71.8984 78.9412 72.131C78.7423 72.4964 78.3777 73.0945 77.7148 73.6261C77.2176 74.0249 76.7204 74.2574 76.4884 74.3571C74.4665 75.1878 72.2126 74.49 70.9199 72.8287C70.1244 71.7987 68.6991 71.4 67.4396 71.8984C66.18 72.3968 65.4508 73.6926 65.5502 74.9884C65.7823 77.0485 64.6221 79.1085 62.5671 79.9392C61.4733 80.3711 60.3132 80.3711 59.2856 80.0388C59.0536 79.9724 58.225 79.773 57.3963 80.2382C56.3688 80.7698 55.8385 82.0324 56.1036 83.1621C56.3025 83.9263 56.8991 84.4247 57.1312 84.5909Z" fill="#383838"/>
<path d="M83.4823 59.7698C83.4823 59.7698 89.1171 78.443 89.5149 79.4398C89.9126 80.4699 90.907 81.4002 92.1334 81.7657C93.3598 82.1312 94.7188 81.8321 95.5806 81.1676C96.4424 80.5031 110.993 67.578 110.993 67.578C111.192 67.4119 111.723 66.847 111.855 66.0164C112.021 64.8867 111.325 63.6905 110.264 63.2586C109.402 62.9263 108.607 63.1589 108.375 63.2586C108.01 63.4247 107.347 63.6573 106.519 63.6905C105.856 63.7237 105.359 63.5908 105.093 63.5244C103.005 62.9263 101.613 60.9992 101.613 58.9059C101.58 57.6101 100.718 56.4139 99.4255 56.0484C98.0997 55.6829 96.7407 56.2478 96.0446 57.3443C94.9508 59.1385 92.7963 60.0356 90.675 59.4375C89.548 59.1053 88.6199 58.4075 88.0233 57.5104C87.8576 57.311 87.3272 56.6465 86.3992 56.4804C85.2722 56.281 84.0458 56.9455 83.5817 57.9756C83.2171 58.773 83.416 59.504 83.4823 59.7698Z" fill="#383838"/>
</g>
<rect x="45" y="37" width="78" height="78" rx="11" stroke="#383838" stroke-width="2"/>
<path d="M142.935 123.479C142.075 127.02 132.61 127.761 121.795 125.135C110.979 122.509 102.908 117.51 103.768 113.969C104.627 110.429 114.092 109.687 124.908 112.314C135.723 114.94 143.794 119.939 142.935 123.479Z" fill="#FF7169"/>
<path d="M142.935 123.479C142.075 127.02 132.61 127.761 121.795 125.135C110.979 122.509 102.908 117.51 103.768 113.969L100.655 126.791C99.795 130.331 107.866 135.33 118.682 137.956C129.497 140.582 138.962 139.841 139.822 136.301L142.935 123.479Z" fill="#FF7169"/>
<path d="M142.935 123.479C142.075 127.02 132.61 127.761 121.795 125.135C110.979 122.509 102.908 117.51 103.768 113.969M142.935 123.479C143.794 119.939 135.723 114.94 124.908 112.314C114.092 109.687 104.627 110.429 103.768 113.969M142.935 123.479L139.822 136.301C138.962 139.841 129.497 140.582 118.682 137.956C107.866 135.33 99.795 130.331 100.655 126.791L103.768 113.969" stroke="#383838" stroke-width="2" stroke-miterlimit="10"/>
<path d="M146.165 110.177C145.283 113.806 135.801 114.619 124.986 111.993C114.17 109.366 106.117 104.296 106.998 100.667C107.879 97.0376 117.361 96.2246 128.177 98.8506C138.992 101.477 147.046 106.548 146.165 110.177Z" fill="#FF7169"/>
<path d="M146.165 110.177C145.283 113.806 135.801 114.619 124.986 111.993C114.17 109.366 106.117 104.296 106.998 100.667L103.807 113.809C102.926 117.438 110.979 122.508 121.795 125.135C132.61 127.761 142.092 126.948 142.974 123.318L146.165 110.177Z" fill="#FF7169"/>
<path d="M146.165 110.177C145.283 113.806 135.801 114.619 124.986 111.993C114.17 109.366 106.117 104.296 106.998 100.667M146.165 110.177C147.046 106.548 138.992 101.477 128.177 98.8506C117.361 96.2246 107.879 97.0376 106.998 100.667M146.165 110.177L142.974 123.318C142.092 126.948 132.61 127.761 121.795 125.135C110.979 122.508 102.926 117.438 103.807 113.809L106.998 100.667" stroke="#383838" stroke-width="2" stroke-miterlimit="10"/>
<path d="M11.9169 61.5913C12.5071 60.993 13.4929 60.993 14.0831 61.5913L17.4418 64.9962C17.9956 65.5576 17.9956 66.4419 17.4418 67.0033L14.0831 70.4082C13.4929 71.0064 12.507 71.0064 11.9169 70.4082L8.55819 67.0033C8.00441 66.4419 8.00441 65.5576 8.55819 64.9962L11.9169 61.5913Z" fill="#F4EFEA" stroke="#383838" stroke-width="2" stroke-miterlimit="10"/>
<path d="M98.2779 144.061C98.6714 143.662 99.3286 143.662 99.722 144.061L101.961 146.331C102.33 146.705 102.33 147.295 101.961 147.669L99.722 149.939C99.3286 150.338 98.6714 150.338 98.2779 149.939L96.0388 147.669C95.6696 147.295 95.6696 146.705 96.0388 146.331L98.2779 144.061Z" fill="#F4EFEA" stroke="#383838" stroke-width="2" stroke-miterlimit="10"/>
<path d="M22.2436 22.8192C22.3268 21.1367 24.0243 20.0226 25.601 20.6154L33.773 23.6881C35.6761 24.4037 35.9619 26.977 34.2621 28.0927L25.6587 33.7399C23.959 34.8556 21.7116 33.5698 21.8121 31.539L22.2436 22.8192Z" fill="#FF7169" stroke="#383838" stroke-width="2" stroke-miterlimit="10"/>
<path d="M135.924 14.4316C140.014 16.0147 143.326 18.3205 145.387 20.7208C147.48 23.1572 148.121 25.4725 147.445 27.2208C146.768 28.9691 144.735 30.2483 141.548 30.6413C138.408 31.0285 134.406 30.5044 130.316 28.9213C126.225 27.3382 122.914 25.0316 120.852 22.6313C118.76 20.1949 118.118 17.8805 118.795 16.1321C119.472 14.3838 121.505 13.1038 124.692 12.7107C127.832 12.3236 131.834 12.8486 135.924 14.4316Z" fill="#FF7169" stroke="#383838" stroke-width="2"/>
<path d="M24.0439 132.17C25.1259 132.198 26.0947 132.658 26.7846 133.38C27.5076 132.694 28.4969 132.284 29.5789 132.312C31.7326 132.367 33.4379 134.137 33.3878 136.265C33.3688 137.072 33.1 137.815 32.6562 138.423C33.0709 139.054 33.3044 139.809 33.2854 140.616C33.2353 142.745 31.4487 144.426 29.2951 144.371C28.2131 144.343 27.2443 143.882 26.5544 143.161C25.8314 143.846 24.8421 144.257 23.7601 144.229C21.6065 144.174 19.9012 142.404 19.9512 140.275C19.9702 139.468 20.239 138.725 20.6828 138.117C20.2681 137.487 20.0346 136.731 20.0536 135.924C20.1037 133.796 21.8903 132.115 24.0439 132.17Z" fill="#FF7169" stroke="#383838" stroke-width="2"/>
<defs>
<clipPath id="clip0_20298_27976">
<rect x="44" y="36" width="80" height="80" rx="12" fill="white"/>
</clipPath>
</defs>
</svg>
