<svg width="160" height="160" viewBox="0 0 160 160" fill="none" xmlns="http://www.w3.org/2000/svg">
<path d="M34.0625 21.7344C34.5538 34.8665 43.817 65.6577 76.9391 83.7654" stroke="#383838" stroke-width="2"/>
<path d="M125.5 119.5C144 104.5 165 67.5005 87.5 80.0004" stroke="#383838" stroke-width="2"/>
<rect x="39.5" y="45.292" width="71.7079" height="71.7079" rx="10.0562" fill="#383838"/>
<rect x="39.5" y="45.292" width="71.7079" height="71.7079" rx="10.0562" stroke="#383838" stroke-width="2"/>
<g clip-path="url(#clip0_20298_28452)">
<rect x="46.793" y="36" width="73.7079" height="73.7079" rx="11.0562" fill="#F4EFEA"/>
<line x1="131.557" y1="47.0561" x2="35.7364" y2="47.0561" stroke="#D8D1CB" stroke-width="1.8427"/>
<line x1="131.557" y1="63.6401" x2="35.7364" y2="63.6401" stroke="#D8D1CB" stroke-width="1.8427"/>
<line x1="131.557" y1="80.2251" x2="35.7364" y2="80.2251" stroke="#D8D1CB" stroke-width="1.8427"/>
<line x1="131.557" y1="96.809" x2="35.7364" y2="96.809" stroke="#D8D1CB" stroke-width="1.8427"/>
<line x1="58.7692" y1="28.6289" x2="58.7692" y2="117.078" stroke="#D8D1CB" stroke-width="1.8427"/>
<line x1="75.3535" y1="28.6289" x2="75.3535" y2="117.078" stroke="#D8D1CB" stroke-width="1.8427"/>
<line x1="91.9379" y1="28.6289" x2="91.9379" y2="117.078" stroke="#D8D1CB" stroke-width="1.8427"/>
<line x1="108.522" y1="28.6289" x2="108.522" y2="117.078" stroke="#D8D1CB" stroke-width="1.8427"/>
<path d="M58.89 80.7685C58.89 80.7685 73.4571 91.2075 74.3427 91.728C75.1978 92.2484 76.4499 92.3708 77.5493 91.9423C78.6487 91.5137 79.4733 90.5341 79.7176 89.5544C79.9924 88.5748 83.3212 70.9417 83.3212 70.9417C83.3517 70.6968 83.4433 69.9926 83.0769 69.3192C82.5577 68.4008 81.3972 67.911 80.3589 68.2171C79.5343 68.462 79.1068 69.0743 78.9846 69.2885C78.8014 69.6253 78.4655 70.1763 77.8547 70.6661C77.3966 71.0335 76.9385 71.2478 76.7248 71.3396C74.8619 72.105 72.7852 71.4621 71.5942 69.9314C70.8613 68.9824 69.5481 68.6151 68.3876 69.0743C67.2271 69.5335 66.5553 70.7274 66.6469 71.9213C66.8607 73.8193 65.7918 75.7173 63.8984 76.4826C62.8906 76.8806 61.8217 76.8806 60.875 76.5745C60.6612 76.5132 59.8978 76.3296 59.1343 76.7581C58.1876 77.248 57.699 78.4113 57.9433 79.4521C58.1265 80.1562 58.6762 80.6154 58.89 80.7685Z" fill="#383838"/>
<path d="M83.1674 57.9C83.1674 57.9 88.3591 75.1046 88.7255 76.023C89.092 76.972 90.0082 77.8292 91.1381 78.1659C92.2681 78.5026 93.5202 78.2271 94.3142 77.6149C95.1082 77.0026 108.515 65.0941 108.515 65.0941C108.698 64.941 109.187 64.4206 109.309 63.6553C109.462 62.6144 108.82 61.5124 107.843 61.1144C107.049 60.8083 106.316 61.0225 106.102 61.1144C105.766 61.2675 105.156 61.4817 104.392 61.5124C103.781 61.543 103.323 61.4205 103.079 61.3593C101.155 60.8083 99.8723 59.0327 99.8723 57.1041C99.8417 55.9102 99.0477 54.8081 97.8567 54.4713C96.6351 54.1346 95.383 54.655 94.7417 55.6652C93.7339 57.3184 91.7489 58.1449 89.7944 57.5939C88.7561 57.2877 87.901 56.6449 87.3513 55.8183C87.1986 55.6346 86.71 55.0224 85.8549 54.8693C84.8165 54.6856 83.6866 55.2979 83.2591 56.2469C82.9231 56.9816 83.1064 57.6551 83.1674 57.9Z" fill="#383838"/>
</g>
<rect x="47.793" y="37" width="71.7079" height="71.7079" rx="10.0562" stroke="#383838" stroke-width="2"/>
<path d="M142.934 123.479C142.075 127.02 132.61 127.761 121.795 125.135C110.979 122.509 102.908 117.51 103.768 113.969C104.627 110.429 114.092 109.687 124.908 112.314C135.723 114.94 143.794 119.939 142.934 123.479Z" fill="#FF7169"/>
<path d="M142.934 123.479C142.075 127.02 132.61 127.761 121.795 125.135C110.979 122.509 102.908 117.51 103.768 113.969L100.655 126.791C99.7949 130.331 107.866 135.33 118.681 137.956C129.497 140.582 138.962 139.841 139.821 136.301L142.934 123.479Z" fill="#FF7169"/>
<path d="M142.934 123.479C142.075 127.02 132.61 127.761 121.795 125.135C110.979 122.509 102.908 117.51 103.768 113.969M142.934 123.479C143.794 119.939 135.723 114.94 124.908 112.314C114.092 109.687 104.627 110.429 103.768 113.969M142.934 123.479L139.821 136.301C138.962 139.841 129.497 140.582 118.681 137.956C107.866 135.33 99.7949 130.331 100.655 126.791L103.768 113.969" stroke="#383838" stroke-width="2" stroke-miterlimit="10"/>
<path d="M146.165 110.177C145.284 113.806 135.802 114.619 124.986 111.993C114.171 109.366 106.117 104.296 106.998 100.667C107.879 97.0376 117.362 96.2246 128.177 98.8506C138.993 101.477 147.046 106.548 146.165 110.177Z" fill="#FF7169"/>
<path d="M146.165 110.177C145.284 113.806 135.802 114.619 124.986 111.993C114.171 109.366 106.117 104.296 106.998 100.667L103.807 113.809C102.926 117.438 110.98 122.508 121.795 125.135C132.611 127.761 142.093 126.948 142.974 123.318L146.165 110.177Z" fill="#FF7169"/>
<path d="M146.165 110.177C145.284 113.806 135.802 114.619 124.986 111.993C114.171 109.366 106.117 104.296 106.998 100.667M146.165 110.177C147.046 106.548 138.993 101.477 128.177 98.8506C117.362 96.2246 107.879 97.0376 106.998 100.667M146.165 110.177L142.974 123.318C142.093 126.948 132.611 127.761 121.795 125.135C110.98 122.508 102.926 117.438 103.807 113.809L106.998 100.667" stroke="#383838" stroke-width="2" stroke-miterlimit="10"/>
<path d="M16.9169 77.5913C17.507 76.993 18.4929 76.993 19.083 77.5913L22.4418 80.9962C22.9956 81.5576 22.9956 82.4419 22.4418 83.0033L19.083 86.4082C18.4929 87.0064 17.507 87.0064 16.9169 86.4082L13.5582 83.0033C13.0044 82.4419 13.0044 81.5576 13.5582 80.9962L16.9169 77.5913Z" fill="#F4EFEA" stroke="#383838" stroke-width="2" stroke-miterlimit="10"/>
<path d="M98.278 144.061C98.6714 143.662 99.3287 143.662 99.7221 144.061L101.961 146.331C102.33 146.705 102.33 147.295 101.961 147.669L99.7221 149.939C99.3287 150.338 98.6714 150.338 98.278 149.939L96.0389 147.669C95.6697 147.295 95.6697 146.705 96.0389 146.331L98.278 144.061Z" fill="#F4EFEA" stroke="#383838" stroke-width="2" stroke-miterlimit="10"/>
<path d="M77.278 24.0608C77.6714 23.662 78.3287 23.662 78.7221 24.0608L80.9613 26.3308C81.3305 26.705 81.3305 27.2946 80.9613 27.6689L78.7221 29.9388C78.3287 30.3376 77.6714 30.3376 77.278 29.9388L75.0389 27.6689C74.6697 27.2946 74.6697 26.705 75.0389 26.3308L77.278 24.0608Z" fill="#F4EFEA" stroke="#383838" stroke-width="2" stroke-miterlimit="10"/>
<path d="M52.8648 13.2257C51.3041 13.2257 49.7021 12.6805 48.6302 11.5461C45.5248 8.25969 40.9636 6.18164 35.8433 6.18164C31.0086 6.18164 26.6514 8.03021 23.5718 11.0124C22.0094 12.5253 19.7332 13.2257 17.5584 13.2257C12.3721 13.2257 8.1167 17.1184 8.1167 21.9998C8.1167 26.8812 12.3056 30.774 17.5584 30.774C19.7388 30.774 22.0194 31.4614 23.5875 32.9764C26.6807 35.9649 31.0028 37.818 35.8433 37.818C40.9144 37.818 45.4718 35.7346 48.6151 32.4409C49.6946 31.3097 51.3012 30.774 52.8648 30.774C58.0511 30.774 62.3065 26.8812 62.3065 21.9998C62.3065 17.1184 58.0511 13.2257 52.8648 13.2257Z" fill="#FF7169" stroke="#383838" stroke-width="2.32" stroke-miterlimit="10"/>
<defs>
<clipPath id="clip0_20298_28452">
<rect x="46.793" y="36" width="73.7079" height="73.7079" rx="11.0562" fill="white"/>
</clipPath>
</defs>
</svg>
