<svg width="160" height="160" viewBox="0 0 160 160" fill="none" xmlns="http://www.w3.org/2000/svg">
<path d="M132 45L132 51C132 55.4183 128.418 59 124 59L111 59" stroke="#383838" stroke-width="2" stroke-miterlimit="3.99933" stroke-dasharray="4 4"/>
<path d="M46 83L31 83C26.5817 83 23 79.4183 23 75L23 71" stroke="#383838" stroke-width="2" stroke-miterlimit="3.99933" stroke-dasharray="4 4"/>
<path d="M111 104H119C123.418 104 127 107.582 127 112V117" stroke="#383838" stroke-width="2" stroke-miterlimit="3.99933" stroke-dasharray="4 4"/>
<path d="M79.9851 18.9062C78.0219 18.9062 76.0058 18.2196 74.6613 16.789C70.7527 12.6301 65.0092 10 58.5614 10C52.472 10 46.9843 12.3407 43.1077 16.1162C41.148 18.0247 38.2832 18.9062 35.5477 18.9062C29.0201 18.9062 23.6642 23.8281 23.6642 30C23.6642 36.1719 28.9364 41.0938 35.5477 41.0938C38.2903 41.0938 41.1606 41.9589 43.1276 43.8702C47.0214 47.6536 52.4646 50 58.5614 50C64.9473 50 70.6859 47.3632 74.6423 43.1951C75.9964 41.7685 78.0182 41.0938 79.9851 41.0938C86.5127 41.0938 91.8686 36.1719 91.8686 30C91.8686 23.8281 86.5127 18.9062 79.9851 18.9062Z" stroke="#383838" stroke-width="2" stroke-miterlimit="10"/>
<path d="M104 90C104 95.5228 93.2548 100 80 100C66.7452 100 56 95.5228 56 90C56 84.4772 66.7452 80 80 80C93.2548 80 104 84.4772 104 90Z" fill="#16AA98"/>
<path d="M104 90C104 95.5228 93.2548 100 80 100C66.7452 100 56 95.5228 56 90V110C56 115.523 66.7452 120 80 120C93.2548 120 104 115.523 104 110V90Z" fill="#16AA98"/>
<path d="M104 90C104 95.5228 93.2548 100 80 100C66.7452 100 56 95.5228 56 90M104 90C104 84.4772 93.2548 80 80 80C66.7452 80 56 84.4772 56 90M104 90V110C104 115.523 93.2548 120 80 120C66.7452 120 56 115.523 56 110V90" stroke="#383838" stroke-width="2" stroke-miterlimit="10"/>
<path d="M104 69.25C104 74.9109 93.2548 79.5 80 79.5C66.7452 79.5 56 74.9109 56 69.25C56 63.5891 66.7452 59 80 59C93.2548 59 104 63.5891 104 69.25Z" fill="#16AA98"/>
<path d="M104 69.25C104 74.9109 93.2548 79.5 80 79.5C66.7452 79.5 56 74.9109 56 69.25V89.75C56 95.4109 66.7452 100 80 100C93.2548 100 104 95.4109 104 89.75V69.25Z" fill="#16AA98"/>
<path d="M104 69.25C104 74.9109 93.2548 79.5 80 79.5C66.7452 79.5 56 74.9109 56 69.25M104 69.25C104 63.5891 93.2548 59 80 59C66.7452 59 56 63.5891 56 69.25M104 69.25V89.75C104 95.4109 93.2548 100 80 100C66.7452 100 56 95.4109 56 89.75V69.25" stroke="#383838" stroke-width="2" stroke-miterlimit="10"/>
<path d="M104 50C104 55.5228 93.2548 60 80 60C66.7452 60 56 55.5228 56 50C56 44.4772 66.7452 40 80 40C93.2548 40 104 44.4772 104 50Z" fill="#16AA98"/>
<path d="M104 50C104 55.5228 93.2548 60 80 60C66.7452 60 56 55.5228 56 50V70C56 75.5229 66.7452 80 80 80C93.2548 80 104 75.5229 104 70V50Z" fill="#16AA98"/>
<path d="M104 50C104 55.5228 93.2548 60 80 60C66.7452 60 56 55.5228 56 50M104 50C104 44.4772 93.2548 40 80 40C66.7452 40 56 44.4772 56 50M104 50V70C104 75.5228 93.2548 80 80 80C66.7452 80 56 75.5228 56 70V50" stroke="#383838" stroke-width="2" stroke-miterlimit="10"/>
<path d="M125.556 117.122C126.343 116.324 127.657 116.324 128.444 117.122L132.922 121.662C133.661 122.41 133.661 123.589 132.922 124.338L128.444 128.878C127.657 129.675 126.343 129.675 125.556 128.878L121.078 124.338C120.339 123.589 120.339 122.41 121.078 121.662L125.556 117.122Z" stroke="#383838" stroke-width="2" stroke-miterlimit="10"/>
<path d="M123.137 44.2604C121.852 44.0344 121.124 42.6583 121.66 41.4688L128.536 26.2157C129.219 24.6987 131.349 24.6315 132.127 26.1023L141.729 44.2543C142.508 45.7251 141.254 47.4476 139.615 47.1592L123.137 44.2604Z" stroke="#383838" stroke-width="2" stroke-miterlimit="10"/>
<path d="M27.1309 61.347C29.9653 62.67 32.1987 64.4647 33.5333 66.2494C34.896 68.0719 35.1764 69.6555 34.6688 70.7432C34.1611 71.831 32.7669 72.6339 30.4944 72.7597C28.2694 72.8828 25.4598 72.3225 22.6254 70.9995C19.7912 69.6766 17.5581 67.8829 16.2235 66.0984C14.8606 64.2757 14.5807 62.6914 15.0884 61.6036C15.5962 60.516 16.9901 59.7138 19.2624 59.5881C21.4873 59.465 24.2967 60.024 27.1309 61.347Z" fill="#16AA98" stroke="#383838" stroke-width="2"/>
<circle cx="48" cy="83" r="3" fill="#383838"/>
<circle cx="112" cy="104" r="3" fill="#383838"/>
<circle cx="112" cy="59" r="3" fill="#383838"/>
</svg>
