<svg width="160" height="160" viewBox="0 0 160 160" fill="none" xmlns="http://www.w3.org/2000/svg">
<path d="M137.842 121.58C138.301 120.93 139.223 120.778 139.867 121.246L143.532 123.911C144.136 124.351 144.273 125.177 143.842 125.787L141.227 129.489C140.768 130.139 139.846 130.291 139.202 129.823L135.537 127.158C134.933 126.719 134.796 125.892 135.227 125.282L137.842 121.58Z" fill="#F4EFEA" stroke="#383838" stroke-width="2" stroke-miterlimit="10"/>
<g clip-path="url(#clip0_20298_28500)">
<rect x="41" y="114.375" width="44" height="34" rx="4" fill="#FF7169"/>
<rect x="38" y="115.375" width="48" height="9" fill="#F4EFEA"/>
<rect x="38" y="115.375" width="48" height="9" stroke="#383838" stroke-width="2"/>
<circle cx="47.5" cy="119.875" r="1.5" fill="#383838"/>
<circle cx="52.5" cy="119.875" r="1.5" fill="#383838"/>
<circle cx="57.5" cy="119.875" r="1.5" fill="#383838"/>
<path d="M48.248 131.116H61.7092" stroke="#383838" stroke-width="2"/>
<path d="M53.4258 136.253H78.2772" stroke="#383838" stroke-width="2"/>
<path d="M48.248 141.39H69.9931" stroke="#383838" stroke-width="2"/>
</g>
<rect x="42" y="115.375" width="42" height="32" rx="3" stroke="#383838" stroke-width="2"/>
<path d="M91 143.556C91 145.548 87.4183 147.162 83 147.162C78.5817 147.162 75 145.548 75 143.556C75 141.564 78.5817 139.949 83 139.949C87.4183 139.949 91 141.564 91 143.556Z" fill="#F4EFEA"/>
<path d="M91 143.556C91 145.548 87.4183 147.162 83 147.162C78.5817 147.162 75 145.548 75 143.556V150.769C75 152.761 78.5817 154.375 83 154.375C87.4183 154.375 91 152.761 91 150.769V143.556Z" fill="#F4EFEA"/>
<path d="M91 143.556C91 145.548 87.4183 147.162 83 147.162C78.5817 147.162 75 145.548 75 143.556M91 143.556C91 141.564 87.4183 139.949 83 139.949C78.5817 139.949 75 141.564 75 143.556M91 143.556V150.769C91 152.761 87.4183 154.375 83 154.375C78.5817 154.375 75 152.761 75 150.769V143.556" stroke="#383838" stroke-width="2" stroke-miterlimit="10"/>
<path d="M91 136.072C91 138.113 87.4183 139.768 83 139.768C78.5817 139.768 75 138.113 75 136.072C75 134.03 78.5817 132.375 83 132.375C87.4183 132.375 91 134.03 91 136.072Z" fill="#F4EFEA"/>
<path d="M91 136.072C91 138.113 87.4183 139.768 83 139.768C78.5817 139.768 75 138.113 75 136.072V143.465C75 145.507 78.5817 147.162 83 147.162C87.4183 147.162 91 145.507 91 143.465V136.072Z" fill="#F4EFEA"/>
<path d="M91 136.072C91 138.113 87.4183 139.768 83 139.768C78.5817 139.768 75 138.113 75 136.072M91 136.072C91 134.03 87.4183 132.375 83 132.375C78.5817 132.375 75 134.03 75 136.072M91 136.072V143.465C91 145.507 87.4183 147.162 83 147.162C78.5817 147.162 75 145.507 75 143.465V136.072" stroke="#383838" stroke-width="2" stroke-miterlimit="10"/>
<g clip-path="url(#clip1_20298_28500)">
<rect x="79" y="10" width="44" height="32" rx="4" fill="#FF7169"/>
<rect x="76" y="11" width="48" height="9" fill="#F4EFEA"/>
<rect x="76" y="11" width="48" height="9" stroke="#383838" stroke-width="2"/>
<circle cx="85.5" cy="15.5" r="1.5" fill="#383838"/>
<circle cx="90.5" cy="15.5" r="1.5" fill="#383838"/>
<circle cx="95.5" cy="15.5" r="1.5" fill="#383838"/>
<path d="M86.248 25.7568H99.7092" stroke="#383838" stroke-width="2"/>
<path d="M91.4258 30.5918H116.277" stroke="#383838" stroke-width="2"/>
<path d="M86.248 35.4258H107.993" stroke="#383838" stroke-width="2"/>
</g>
<rect x="80" y="11" width="42" height="30" rx="3" stroke="#383838" stroke-width="2"/>
<path d="M85 38.1635C85 39.9742 81.4183 41.4421 77 41.4421C72.5817 41.4421 69 39.9742 69 38.1635C69 36.3527 72.5817 34.8848 77 34.8848C81.4183 34.8848 85 36.3527 85 38.1635Z" fill="#F4EFEA"/>
<path d="M85 38.1635C85 39.9742 81.4183 41.4421 77 41.4421C72.5817 41.4421 69 39.9742 69 38.1635V44.7208C69 46.5316 72.5817 47.9995 77 47.9995C81.4183 47.9995 85 46.5316 85 44.7208V38.1635Z" fill="#F4EFEA"/>
<path d="M85 38.1635C85 39.9742 81.4183 41.4421 77 41.4421C72.5817 41.4421 69 39.9742 69 38.1635M85 38.1635C85 36.3527 81.4183 34.8848 77 34.8848C72.5817 34.8848 69 36.3527 69 38.1635M85 38.1635V44.7208C85 46.5316 81.4183 47.9995 77 47.9995C72.5817 47.9995 69 46.5316 69 44.7208V38.1635" stroke="#383838" stroke-width="2" stroke-miterlimit="10"/>
<path d="M85 31.3607C85 33.2167 81.4183 34.7213 77 34.7213C72.5817 34.7213 69 33.2167 69 31.3607C69 29.5046 72.5817 28 77 28C81.4183 28 85 29.5046 85 31.3607Z" fill="#F4EFEA"/>
<path d="M85 31.3607C85 33.2167 81.4183 34.7213 77 34.7213C72.5817 34.7213 69 33.2167 69 31.3607V38.082C69 39.938 72.5817 41.4426 77 41.4426C81.4183 41.4426 85 39.938 85 38.082V31.3607Z" fill="#F4EFEA"/>
<path d="M85 31.3607C85 33.2167 81.4183 34.7213 77 34.7213C72.5817 34.7213 69 33.2167 69 31.3607M85 31.3607C85 29.5046 81.4183 28 77 28C72.5817 28 69 29.5046 69 31.3607M85 31.3607V38.082C85 39.938 81.4183 41.4426 77 41.4426C72.5817 41.4426 69 39.938 69 38.082V31.3607" stroke="#383838" stroke-width="2" stroke-miterlimit="10"/>
<path d="M40.0664 84.1045L27.9257 83.907C19.3396 83.7674 12.389 90.8506 12.691 99.4325L13.2661 115.776C13.5469 123.755 20.0294 130.116 28.0128 130.246L30.4992 130.287" stroke="#383838" stroke-width="2" stroke-miterlimit="3.99933" stroke-dasharray="4 4"/>
<circle cx="3" cy="3" r="3" transform="matrix(-0.999543 -0.0302129 -0.0302129 0.999543 36.1797 127.182)" fill="#383838"/>
<path d="M123 84.0742L135.743 84.236C144.101 84.3421 150.934 77.5959 150.934 69.2372L150.934 41.0024C150.934 32.7182 144.218 26.0024 135.934 26.0024L132.927 26.0024" stroke="#383838" stroke-width="2" stroke-miterlimit="3.99933" stroke-dasharray="4 4"/>
<circle cx="3" cy="3" r="3" transform="matrix(0.999543 0.0302129 0.0302129 -0.999543 128 27.9971)" fill="#383838"/>
<path d="M113.721 70.3932C111.277 70.3932 108.785 69.5579 107.026 67.8593C102.211 63.2074 95.1861 60.2725 87.3086 60.2725C79.8984 60.2725 73.211 62.8639 68.4429 67.0567C65.8824 69.3082 62.3452 70.3932 58.9355 70.3932C50.8879 70.3932 44.2847 75.9862 44.2847 82.9997C44.2847 90.0132 50.7847 95.6063 58.9355 95.6063C62.3536 95.6063 65.8973 96.6705 68.4659 98.9255C73.2531 103.128 79.8883 105.727 87.3086 105.727C95.1117 105.727 102.131 102.784 107.004 98.1199C108.773 96.4264 111.272 95.6063 113.721 95.6063C121.769 95.6063 128.372 90.0132 128.372 82.9997C128.372 75.9862 121.769 70.3932 113.721 70.3932Z" fill="#F4EFEA" stroke="#383838" stroke-width="2" stroke-miterlimit="10"/>
<path d="M16.1598 18.4727C18.0687 18.2323 19.9044 18.71 21.3259 19.6757C22.3972 18.3962 24.0161 17.4835 25.925 17.2432C29.7247 16.7648 33.2346 19.1314 33.7646 22.529C33.9656 23.8176 33.7091 25.0693 33.106 26.153C34.0175 27.046 34.6471 28.1863 34.8481 29.4748C35.3781 32.8725 32.7274 36.0146 28.9277 36.493C27.0188 36.7333 25.1831 36.2557 23.7616 35.29C22.6903 36.5695 21.0714 37.4821 19.1625 37.7224C15.3628 38.2008 11.8529 35.8343 11.3229 32.4367C11.1219 31.1481 11.3783 29.8963 11.9814 28.8126C11.07 27.9196 10.4404 26.7794 10.2394 25.4909C9.70943 22.0932 12.3601 18.9511 16.1598 18.4727Z" fill="#F4EFEA" stroke="#383838" stroke-width="2"/>
<path d="M87.8834 80.936L87.6995 81.8853L91.1835 82.6338L85.8504 89.8005L87.056 85.262L87.3221 84.2604L83.6968 83.4817L88.8799 75.7903L87.8834 80.936Z" fill="#383838" stroke="#383838" stroke-width="1.97476"/>
<defs>
<clipPath id="clip0_20298_28500">
<rect x="41" y="114.375" width="44" height="34" rx="4" fill="white"/>
</clipPath>
<clipPath id="clip1_20298_28500">
<rect x="79" y="10" width="44" height="32" rx="4" fill="white"/>
</clipPath>
</defs>
</svg>
