<svg width="624" height="379" viewBox="0 0 624 379" fill="none" xmlns="http://www.w3.org/2000/svg">
<path d="M75.7378 186.579C245.619 234.111 395.069 218.351 461.085 207.977C492.993 199.489 519.399 175.44 524.901 161.293C530.402 147.147 461.215 159.824 531.862 93.2123C564.87 62.0901 518.152 41.5992 313.503 37.3553C108.853 33.1113 64.7355 76.2365 60.334 93.2123C52.1218 124.886 115.347 138.481 107.645 152.627C101.484 163.945 30.6269 175.262 75.7378 186.579Z" fill="#97D4FF"/>
<path d="M171.01 141.439C168.687 141.439 166.471 141.754 164.412 142.33C159.925 134.837 151.744 129.859 142.348 129.859C135.539 129.859 129.31 132.532 124.718 136.828C121.921 135.414 118.701 134.628 115.323 134.628C108.144 134.628 101.757 138.243 98.0094 143.745C96.162 143.431 94.2089 143.221 92.2031 143.221C81.0129 143.221 76.1567 148.618 76.1567 155.273C76.1567 161.927 81.0129 167.324 92.2031 167.324C94.2089 167.324 96.162 167.167 98.0094 166.8C101.757 172.302 108.091 175.918 115.323 175.918C118.701 175.918 121.868 175.132 124.718 173.717C129.31 178.013 135.539 180.686 142.348 180.686C151.744 180.686 159.925 175.656 164.412 168.215C166.471 168.791 168.687 169.106 171.01 169.106C181.461 169.106 189.907 162.923 189.907 155.273C189.907 147.622 181.408 141.439 171.01 141.439Z" fill="white" stroke="#383838" stroke-width="2.001" stroke-miterlimit="10"/>
<path d="M416.123 110.3C413.469 110.3 410.935 110.652 408.582 111.298C403.455 102.906 394.104 97.3306 383.367 97.3306C375.585 97.3306 368.466 100.324 363.218 105.136C360.021 103.551 356.341 102.671 352.48 102.671C344.276 102.671 336.977 106.72 332.694 112.882C330.582 112.53 328.35 112.296 326.058 112.296C313.269 112.296 307.719 118.34 307.719 125.793C307.719 133.247 313.269 139.291 326.058 139.291C328.35 139.291 330.582 139.115 332.694 138.704C336.977 144.866 344.216 148.916 352.48 148.916C356.341 148.916 359.961 148.035 363.218 146.451C368.466 151.263 375.585 154.256 383.367 154.256C394.104 154.256 403.455 148.622 408.582 140.289C410.935 140.934 413.469 141.287 416.123 141.287C428.067 141.287 437.719 134.362 437.719 125.793C437.719 117.225 428.007 110.3 416.123 110.3Z" fill="white" stroke="#383838" stroke-width="2.001" stroke-miterlimit="10"/>
<path d="M269.205 156.311H245.421H222.486V278.273H269.205V156.311Z" fill="#E8E8E8"/>
<path d="M222.486 156.311V150.19H245.421V156.311H222.486Z" fill="#E8E8E8"/>
<path d="M222.486 156.311V278.273H269.205V156.311H245.421M222.486 156.311V150.19H245.421V156.311M222.486 156.311H245.421M260.961 170.48L229.228 170.48M260.961 211.061H229.228M260.961 190.771H229.228M260.961 231.351H229.228M260.961 180.625L229.228 180.625M260.961 221.206H229.228M260.961 200.916L229.228 200.916" stroke="#383838" stroke-width="2.001"/>
<rect opacity="0.3" x="236.627" y="178.653" width="14.2187" height="63.0248" fill="#383838"/>
<path d="M437.719 76.9995L401.157 103.173V268.107H437.719V76.9995Z" fill="#E8E8E8"/>
<path d="M437.719 85.0281L401.157 111.201M428.579 103.132V210.036M419.438 109.203V216.107M410.297 115.538V222.442M437.719 76.9995L401.157 103.173V268.107H437.719V76.9995Z" stroke="#383838" stroke-width="2.001"/>
<mask id="mask0_4_421" style="mask-type:alpha" maskUnits="userSpaceOnUse" x="400" y="75" width="39" height="195">
<path d="M437.719 76.9995L401.157 103.173V268.107H437.719V76.9995Z" fill="#E8E8E8" stroke="#383838" stroke-width="2.001"/>
</mask>
<g mask="url(#mask0_4_421)">
<g opacity="0.4">
<path d="M468.309 178.485C470.653 208.538 423.87 236.705 363.816 241.396C303.763 246.088 253.18 225.528 250.836 195.475C248.492 165.421 295.275 137.255 355.329 132.563C415.382 127.871 465.965 148.431 468.309 178.485Z" fill="#383838"/>
<path d="M405.653 127.567C407.143 126.16 409.595 126.896 410.067 128.89L413.121 141.801C413.593 143.795 411.731 145.553 409.769 144.965L397.071 141.157C395.109 140.568 394.52 138.076 396.009 136.669L405.653 127.567Z" fill="#383838"/>
</g>
</g>
<path d="M453.969 142.565H479.822H504.75V274.206H453.969V142.565Z" fill="#E8E8E8"/>
<path d="M504.75 142.565V135.958H479.822V142.565H504.75Z" fill="#E8E8E8"/>
<path d="M504.75 142.565V274.206H453.969V142.565H479.822M504.75 142.565V135.958H479.822V142.565M504.75 142.565H479.822M462.931 157.859L497.422 157.859M462.931 201.66H497.422M462.931 179.76H497.422M462.931 223.561H497.422M462.931 168.809L497.422 168.809M462.931 212.611H497.422M462.931 190.71L497.422 190.71" stroke="#383838" stroke-width="2.001"/>
<path opacity="0.3" d="M490.532 274.206V142.565V135.958H479.822V142.565H453.969V274.206H490.532Z" fill="#383838"/>
<path d="M190.92 178.715H214.667H238.349V238.967H190.92V178.715Z" fill="#E8E8E8"/>
<path d="M197.882 193.955L231.387 193.955M197.882 215.779H231.387M197.882 204.867L231.387 204.867M197.882 226.691L231.387 226.691M190.92 178.715V238.967H238.349V178.715H214.667H190.92Z" stroke="#383838" stroke-width="2.001"/>
<rect opacity="0.3" x="205.514" y="178.715" width="12.7694" height="51.123" fill="#383838"/>
<path d="M128.951 145.638H135.299H150.443H156.79V298.603H128.951V145.638Z" fill="#E8E8E8"/>
<path d="M177.675 145.638H183.887H199.167H205.514V298.603H177.675V145.638Z" fill="#E8E8E8"/>
<path d="M142.871 117.271H135.299V145.638H150.443V117.271H142.871Z" fill="#E8E8E8"/>
<path d="M156.79 145.638V298.603H177.675V145.638H183.887V117.271H191.46V93.153H185.589H148.742H142.871V117.271H150.443V145.638H156.79Z" fill="#E8E8E8"/>
<path d="M191.46 117.271H183.887V145.638H199.167V117.271H191.46Z" fill="#E8E8E8"/>
<path d="M148.742 86.1418V93.153H185.589V86.1418H181.085H153.246H148.742Z" fill="#E8E8E8"/>
<path d="M153.246 79.1476V86.1418H181.085V79.1476H176.581H157.749H153.246Z" fill="#E8E8E8"/>
<path d="M157.749 72.0994V79.1476H176.581V72.0994H171.267H163.064H157.749Z" fill="#E8E8E8"/>
<path d="M167.165 54.0772H163.064V72.0994H171.267V54.0772H167.165Z" fill="#E8E8E8"/>
<path d="M156.79 298.603V145.638H150.443M156.79 298.603H128.951V145.638H135.299M156.79 298.603H177.675M177.675 298.603H205.514V145.638H199.167M177.675 298.603V145.638H183.887M148.742 93.153H142.871V117.271M148.742 93.153V86.1418H153.246M148.742 93.153H185.589M185.589 93.153H191.46V117.271M185.589 93.153V86.1418H181.085M142.871 117.271H135.299V145.638M142.871 117.271H150.443V145.638M191.46 117.271H183.887V145.638M191.46 117.271H199.167V145.638M183.887 145.638H199.167M150.443 145.638H135.299M167.165 54.0772H163.064V72.0994M167.165 54.0772H171.267V72.0994M167.165 54.0772V24.0913M191.46 122.913V140.309M142.871 122.913V140.309M184.872 151.28V291.258M198.182 151.28V291.258M136.283 151.28V291.258M149.458 151.28V291.258M153.246 86.1418V79.1476H157.749M153.246 86.1418H181.085M181.085 86.1418V79.1476H176.581M157.749 79.1476V72.0994H163.064M157.749 79.1476H176.581M176.581 79.1476V72.0994H171.267M163.064 72.0994H171.267M183.448 98.7813V111.185M150.698 98.7813V111.185M191.46 151.28V291.258M142.871 151.28V291.258M163.802 98.7813V291.258M170.39 98.7813V291.258M157.224 98.7813V140.309M176.923 98.7813V140.309" stroke="#383838" stroke-width="2.001"/>
<g opacity="0.3">
<path d="M156.837 145.637H150.709H157.064H163.646V298.602H156.837V145.637Z" fill="#383838"/>
<path d="M151.432 117.27H150.709V145.637H157.064V117.27H151.432Z" fill="#383838"/>
<path d="M179.218 86.1408V93.1519H185.588V86.1408H181.085H176.039H179.218Z" fill="#383838"/>
<path d="M176.039 79.1466V86.1408H181.085V79.1466H176.581H172.915H176.039Z" fill="#383838"/>
<path d="M172.915 72.0984V79.1466H176.581V72.0984H171.267H169.668H172.915Z" fill="#383838"/>
<path d="M169.668 54.0762V72.0984H171.267V54.0762H169.668Z" fill="#383838"/>
<path d="M157.064 145.637H163.646V298.602H156.837V145.637H150.709M150.709 145.637H157.064V117.27H151.432H150.709V145.637ZM176.039 86.1408H179.218V93.1519H185.588V86.1408H181.085M181.085 86.1408H176.039V79.1466H172.915M181.085 86.1408V79.1466H176.581M176.581 79.1466H172.915V72.0984H169.668M176.581 79.1466V72.0984H171.267M171.267 72.0984H169.668V54.0762H171.267V72.0984Z" stroke="#383838" stroke-width="2.001"/>
</g>
<path d="M334.801 65.9338C337.906 66.3098 339.44 69.9086 337.563 72.4115L325.409 88.6151C323.531 91.118 319.651 90.648 318.423 87.769L310.479 69.131C309.252 66.252 311.599 63.1233 314.703 63.4993L334.801 65.9338Z" fill="#FF7169" stroke="#383838" stroke-width="2.001"/>
<path d="M320.563 41.0309C323.12 40.8588 324.904 43.522 323.775 45.8245L316.463 60.731C315.333 63.0336 312.137 63.2487 310.709 61.1182L301.467 47.3257C300.039 45.1952 301.451 42.3169 304.008 42.1449L320.563 41.0309Z" fill="#FF7169" stroke="#383838" stroke-width="2.001"/>
<path d="M340.309 94.447C343.108 94.1813 345.145 97.0481 343.976 99.6072L336.405 116.174C335.236 118.734 331.737 119.066 330.107 116.772L319.557 101.925C317.927 99.6314 319.389 96.4325 322.188 96.1668L340.309 94.447Z" fill="#FF7169" stroke="#383838" stroke-width="2.001"/>
<path d="M351.765 111.163C353.928 109.364 357.224 110.584 357.699 113.358L360.772 131.315C361.247 134.089 358.544 136.337 355.906 135.361L338.832 129.045C336.195 128.069 335.601 124.602 337.764 122.804L351.765 111.163Z" fill="#FF7169" stroke="#383838" stroke-width="2.001"/>
<path d="M374.462 120.255C376.214 118.601 379.098 119.466 379.654 121.812L383.247 137.001C383.802 139.347 381.612 141.414 379.304 140.722L364.366 136.242C362.058 135.55 361.364 132.617 363.117 130.963L374.462 120.255Z" fill="#FF7169" stroke="#383838" stroke-width="2.001"/>
<path d="M397.529 127.567C399.018 126.161 401.47 126.897 401.942 128.891L404.997 141.801C405.468 143.796 403.607 145.553 401.645 144.965L388.947 141.156C386.986 140.568 386.396 138.075 387.886 136.669L397.529 127.567Z" fill="#FF7169" stroke="#383838" stroke-width="2.001"/>
<path d="M418.425 137.775C420 136.465 422.401 137.354 422.746 139.374L424.982 152.451C425.327 154.471 423.358 156.108 421.438 155.397L409.005 150.795C407.084 150.084 406.653 147.559 408.228 146.25L418.425 137.775Z" fill="#FF7169" stroke="#383838" stroke-width="2.001"/>
<path d="M336.371 223.463L334.804 295.208L273.692 291.721L273.728 291.096C273.728 291.096 322.978 276.481 328.469 263.505C335.697 246.367 330.413 222.622 330.413 222.622L336.371 223.463Z" fill="#FF7169" stroke="#383838" stroke-width="1.99743" stroke-miterlimit="10"/>
<path d="M335.363 259.122L335.644 245.347L331.363 244.013C331.363 244.013 332.017 251.678 330.908 257.854C332.141 258.175 334.005 258.794 335.363 259.122Z" fill="#383838"/>
<path d="M356.7 224.613L350.144 296.073L411.256 299.561L411.291 298.936C411.291 298.936 364.011 278.812 360.023 265.295C354.78 247.445 362.715 224.454 362.715 224.454L356.7 224.613Z" fill="#FF7169" stroke="#383838" stroke-width="1.99743" stroke-miterlimit="10"/>
<path d="M353.354 259.432L354.969 246.448L360.669 245.683C360.669 245.683 357.289 247.67 358.844 258.656C357.582 258.835 354.74 259.261 353.354 259.432Z" fill="#383838"/>
<path d="M444.165 197.434C440.846 230.636 391.877 252.143 334.789 245.472C314.401 243.089 302.745 238.779 283.106 225.579C257.337 208.259 245.593 180.654 271.573 153.361C272.464 119.51 289.719 118.566 346.807 125.237C403.895 131.909 447.484 164.232 444.165 197.434Z" fill="#FFDE00" stroke="#383838" stroke-width="1.99743" stroke-miterlimit="10"/>
<path d="M295.157 231.783C295.157 231.783 269.579 222.042 251.87 191.865C234.603 164.417 228.584 127.567 229.618 112.792C224.748 31.054 282.607 -0.258152 310.757 46.5044C324.221 68.8697 318.887 109.532 348.34 130.882L310.768 159.048L299.421 227.702L295.157 231.783Z" fill="#FFDE00"/>
<path d="M359.147 137.88C320.269 119.7 325.548 77.7793 313.871 53.1626C288.633 -0.0421158 233.638 24.9332 229.891 95.8255C228.414 151.724 244.925 205.428 294.985 232.935" stroke="#383838" stroke-width="1.99743" stroke-miterlimit="10"/>
<path d="M452.335 185.128C455.807 215.543 416.076 205.753 393.852 192.326C388.109 188.857 383.536 185.145 381.178 181.821C374.136 171.972 380.598 164.776 387.704 178.518C390.397 183.703 392.417 188.291 393.852 192.326C410.781 239.953 346.064 210.631 341.029 177.223" fill="#FFDE00"/>
<path d="M452.335 185.128C455.807 215.543 416.076 205.753 393.852 192.326C392.417 188.291 390.397 183.703 387.704 178.518C380.598 164.776 374.136 171.972 381.178 181.821C383.536 185.145 388.109 188.857 393.852 192.326C410.781 239.953 346.064 210.631 341.029 177.223C338.061 164.196 355.26 162.739 360.542 157.161C372.149 144.902 382.744 138.228 399.055 141.727C441.257 156.774 452.276 176.746 452.335 185.128Z" fill="#FFDE00"/>
<path d="M452.332 185.129C456.701 223.403 392.658 198.011 381.175 181.822C374.133 171.973 380.595 164.777 387.701 178.519C422.174 244.894 346.488 213.463 341.026 177.224" fill="#FFDE00"/>
<path d="M341.026 177.224C346.488 213.463 422.174 244.894 387.701 178.519C380.595 164.777 374.133 171.973 381.175 181.822C392.658 198.011 456.701 223.403 452.332 185.129C452.274 176.747 441.798 156.072 400.364 140.428" stroke="#383838" stroke-width="1.99743" stroke-miterlimit="10"/>
<path fill-rule="evenodd" clip-rule="evenodd" d="M254.735 85.9388C261.087 93.3723 268.942 102.566 286.788 103.839C298.317 104.661 295.771 120.68 284.931 119.066C267.584 159.728 224.054 163.719 218.212 119.299C199.313 123.851 162.282 127.135 161.775 112.51C161.403 101.778 178.183 103.258 196.48 104.871C196.883 104.906 197.287 104.942 197.692 104.978C236.279 103.89 247.038 91.2549 252.228 85.1606C252.555 84.7771 252.859 84.4194 253.147 84.0922C253.669 84.6912 254.197 85.3087 254.735 85.9388ZM244.286 141.935C258.395 142.135 269.204 133.389 272.935 124.84C275.087 119.907 276.386 115.793 276.564 112.412C270.148 125.256 240.223 122.388 226.238 120.56C226.475 122.86 226.913 125.354 227.647 127.8C229.81 135.009 234.543 141.797 244.286 141.935Z" fill="#FF7169"/>
<path d="M226.238 120.56C240.223 122.388 270.148 125.256 276.564 112.412C276.386 115.793 275.087 119.907 272.935 124.84C269.204 133.389 258.395 142.135 244.286 141.935C234.543 141.797 229.81 135.009 227.647 127.8C226.913 125.354 226.475 122.86 226.238 120.56Z" fill="#383838"/>
<path d="M218.212 119.299C200.295 115.155 185.468 112.274 175.767 112.61M218.212 119.299C199.313 123.851 162.282 127.135 161.775 112.51C161.403 101.778 178.183 103.258 196.48 104.871C196.883 104.906 197.287 104.942 197.692 104.978M218.212 119.299C224.054 163.719 267.584 159.728 284.931 119.066C295.771 120.68 298.317 104.661 286.788 103.839C268.942 102.566 261.087 93.3723 254.735 85.9388C254.197 85.3087 253.669 84.6912 253.147 84.0922C252.859 84.4194 252.555 84.7771 252.228 85.1606C247.038 91.2549 236.279 103.89 197.692 104.978M218.212 119.299C218.212 119.299 221.383 119.926 226.238 120.56M226.98 110.091C213.91 109.361 207.9 106.227 197.692 104.978M226.238 120.56C240.223 122.388 270.148 125.256 276.564 112.412C276.386 115.793 275.087 119.907 272.935 124.84C269.204 133.389 258.395 142.135 244.286 141.935C234.543 141.797 229.81 135.009 227.647 127.8C226.913 125.354 226.475 122.86 226.238 120.56Z" stroke="#383838" stroke-width="1.99743"/>
<path d="M229.484 69.4733C229.55 78.7028 233.637 86.1736 238.6 86.1433C243.007 86.1133 246.616 80.2186 247.342 72.4741C247.401 71.7735 247.003 71.1055 246.342 70.8149L239.457 67.7868C238.094 67.1964 238.105 65.2631 239.467 64.6655L245.04 62.2463C245.815 61.9161 246.24 61.0369 245.958 60.2303C244.317 55.6768 241.518 52.6753 238.373 52.7067C233.409 52.7371 229.44 60.2572 229.506 69.4868L229.484 69.4733Z" fill="#383838"/>
<path d="M263.53 68.5694C263.32 77.7967 267.182 85.3866 272.144 85.5051C276.55 85.6072 280.333 79.8232 281.291 72.104C281.37 71.4055 280.993 70.7258 280.34 70.4156L273.549 67.1825C272.205 66.5515 272.273 64.6194 273.653 64.0629L279.295 61.8118C280.08 61.5049 280.531 60.6389 280.274 59.8242C278.769 55.2236 276.061 52.1395 272.916 52.0767C267.954 51.9583 263.762 59.3562 263.552 68.5835L263.53 68.5694Z" fill="#383838"/>
<path d="M308.059 150.671C310.935 151.636 314.047 150.084 315.01 147.206C315.973 144.328 314.423 141.213 311.547 140.249" stroke="#746500" stroke-width="2.001"/>
<path d="M313.55 134.183C316.426 135.147 319.538 133.596 320.501 130.717C321.464 127.839 319.913 124.724 317.037 123.76" stroke="#746500" stroke-width="2.001"/>
<path d="M319.041 145.175C321.917 146.139 325.029 144.588 325.992 141.71C326.956 138.831 325.405 135.717 322.529 134.752" stroke="#746500" stroke-width="2.001"/>
<path d="M260.62 174.867C261.021 176.741 262.864 177.935 264.737 177.534C266.609 177.133 267.802 175.288 267.401 173.414" stroke="#746500" stroke-width="2.001"/>
<path d="M263.763 188.516C264.318 191.109 266.868 192.761 269.458 192.206C272.049 191.651 273.699 189.098 273.144 186.505" stroke="#746500" stroke-width="2.001"/>
<path d="M255.161 182.287C255.419 184.54 257.452 186.156 259.702 185.898C261.952 185.64 263.567 183.605 263.309 181.353" stroke="#746500" stroke-width="2.001"/>
<path d="M268.916 180.376C269.569 182.547 271.856 183.777 274.025 183.124C276.194 182.472 277.423 180.182 276.77 178.011" stroke="#746500" stroke-width="2.001"/>
<path d="M309.466 197.422C311.976 199.127 315.391 198.473 317.094 195.962C318.797 193.451 318.144 190.033 315.634 188.328" stroke="#746500" stroke-width="2.001"/>
<path d="M322.209 196.369C324.542 198.309 328.004 197.989 329.942 195.654C331.88 193.32 331.56 189.854 329.227 187.915" stroke="#746500" stroke-width="2.001"/>
<path d="M270.344 36.4533L291.861 54.6336L256.436 60.9577L270.344 36.4533Z" fill="#FFDE00"/>
<path d="M259.985 61.7507L288.422 54.6375" stroke="#383838" stroke-width="2.001"/>
<path d="M233.579 55.6523C239.266 54.0263 241.703 50.5702 245.766 46.5044L248.813 53.62L247.797 61.7518L233.579 55.6523Z" fill="#FFDE00"/>
<path d="M249.829 61.7519L229.516 53.6196" stroke="#383838" stroke-width="2.001"/>
<path d="M244.75 45.4878C240.688 50.57 238.657 53.6194 233.579 55.6521" stroke="#383838" stroke-width="2.001"/>
<path d="M452.829 91.238C455.373 91.238 457.435 93.3047 457.435 95.8541V102.059C463.299 103.951 467.541 109.458 467.541 115.957V116.884C470.22 120.166 471.828 124.361 471.828 128.932V133.055C473.659 136.261 474.706 139.975 474.706 143.935V148.468C475.116 149.242 475.486 150.039 475.814 150.859H486.221V334.492H477.585H462.616H452.829H443.042H428.074H419.438V150.859H429.844C430.172 150.039 430.542 149.242 430.952 148.468V143.935C430.952 139.975 431.999 136.261 433.831 133.055V128.932C433.831 124.219 435.539 119.906 438.369 116.581V115.957C438.369 109.551 442.49 104.11 448.224 102.143V95.8541C448.224 93.3047 450.286 91.238 452.829 91.238Z" fill="#E8E8E8"/>
<path d="M452.829 91.238C455.373 91.238 457.435 93.3047 457.435 95.8541V102.059M452.829 91.238C450.286 91.238 448.224 93.3047 448.224 95.8541V102.143M452.829 91.238V60.4302M452.829 109.891C454.418 109.891 455.96 110.086 457.435 110.454C458.18 110.64 458.908 110.87 459.615 111.141M438.369 116.581C440.415 114.178 443.047 112.29 446.043 111.141C446.751 110.87 447.478 110.64 448.224 110.454C449.698 110.086 451.241 109.891 452.829 109.891M452.829 109.891V105.706M452.829 122.008V114.884M452.829 122.008C450.46 122.008 448.18 122.385 446.043 123.083M452.829 122.008C455.198 122.008 457.479 122.385 459.615 123.083M428.074 334.492V160.091C428.074 156.828 428.702 153.712 429.844 150.859M428.074 334.492H419.438V150.859H429.844M428.074 334.492H443.042M477.585 334.492V160.091C477.585 156.828 476.956 153.712 475.814 150.859M477.585 334.492H462.616M477.585 334.492H486.221V150.859H475.814M452.829 135.279V126.191M452.829 135.279C450.476 135.279 448.2 135.608 446.043 136.223M452.829 135.279C455.182 135.279 457.459 135.608 459.615 136.223M433.831 133.055C431.999 136.261 430.952 139.975 430.952 143.935V148.468M433.831 133.055V128.932C433.831 124.219 435.539 119.906 438.369 116.581M433.831 133.055C436.503 128.378 440.845 124.782 446.043 123.083M471.828 133.055C473.659 136.261 474.706 139.975 474.706 143.935V148.468M471.828 133.055V128.932C471.828 124.361 470.22 120.166 467.541 116.884M471.828 133.055C469.155 128.378 464.813 124.782 459.615 123.083M446.043 136.223C439.51 138.085 434.078 142.569 430.952 148.468C430.542 149.242 430.172 150.039 429.844 150.859M459.615 136.223C466.148 138.085 471.58 142.569 474.706 148.468C475.116 149.242 475.486 150.039 475.814 150.859M443.042 334.492V160.668M443.042 334.492H452.829M462.616 334.492V160.668M462.616 334.492H452.829M452.829 150.859V141.626M443.042 160.668C443.042 157.891 444.193 155.384 446.043 153.599C447.803 151.902 450.194 150.859 452.829 150.859M462.616 160.668C462.616 157.891 461.465 155.384 459.615 153.599C457.856 151.902 455.464 150.859 452.829 150.859M462.616 160.668H471.828M443.042 160.668H433.831M452.829 160.668V334.492M446.043 153.599L438.991 146.531M459.615 153.599L466.668 146.531M446.043 136.223L440.928 131.096M459.615 136.223L464.731 131.096M446.043 123.083L442.591 119.622M459.615 123.083L463.067 119.622M438.369 116.581V115.957C438.369 109.551 442.49 104.11 448.224 102.143M467.541 116.884V115.957C467.541 109.458 463.299 103.951 457.435 102.059M467.541 116.884C465.462 114.336 462.736 112.338 459.615 111.141M459.615 111.141L461.477 109.278M446.043 111.141L444.182 109.278M448.224 102.143C449.707 101.634 451.299 101.357 452.955 101.357C454.518 101.357 456.023 101.603 457.435 102.059" stroke="#383838" stroke-width="2.001"/>
<g opacity="0.3">
<path d="M477.584 334.492V160.091C477.584 156.828 476.956 153.712 475.813 150.858C475.486 150.039 475.115 149.241 474.705 148.468C471.579 142.569 466.147 138.085 459.614 136.223C457.458 135.608 455.182 135.279 452.828 135.279H459.614C464.479 135.279 474.705 138.87 474.705 148.468V143.934C474.705 139.975 473.658 136.261 471.827 133.055C469.155 128.377 464.812 124.781 459.614 123.083C457.478 122.385 455.197 122.008 452.828 122.008C459.161 121.981 471.827 123.849 471.827 133.055C473.658 136.261 474.705 139.975 474.705 143.934V148.468C475.115 149.241 475.486 150.039 475.813 150.858H486.22V334.492H477.584H466.344H462.615V160.668C462.615 157.891 461.464 155.384 459.614 153.599C457.855 151.902 455.463 150.858 452.828 150.858H456.71C459.416 150.858 466.344 153.928 466.344 160.668V334.492H477.584Z" fill="#383838"/>
<path d="M457.434 95.8539C457.434 93.3045 455.372 91.2378 452.828 91.2378C453.699 91.8365 455.441 92.99 455.441 95.8539V101.372C456.117 101.465 456.782 101.594 457.434 101.757V95.8539Z" fill="#383838"/>
<path d="M456.989 109.744H452.828C460.3 109.744 465.646 113.782 467.385 115.801C465.678 110.521 459.782 109.744 456.989 109.744Z" fill="#383838"/>
<path d="M477.584 334.492V160.091C477.584 156.828 476.956 153.712 475.813 150.858M477.584 334.492H486.22V150.858H475.813M477.584 334.492H466.344M471.827 133.055C473.658 136.261 474.705 139.975 474.705 143.934V148.468M471.827 133.055C469.155 128.377 464.812 124.781 459.614 123.083C457.478 122.385 455.197 122.008 452.828 122.008C459.161 121.981 471.827 123.849 471.827 133.055ZM474.705 148.468C475.115 149.241 475.486 150.039 475.813 150.858M474.705 148.468C471.579 142.569 466.147 138.085 459.614 136.223C457.458 135.608 455.182 135.279 452.828 135.279C454.469 135.279 455.723 135.279 459.614 135.279C464.479 135.279 474.705 138.87 474.705 148.468ZM466.344 334.492H462.615V160.668C462.615 157.891 461.464 155.384 459.614 153.599C457.855 151.902 455.463 150.858 452.828 150.858H456.71C459.416 150.858 466.344 153.928 466.344 160.668C466.344 167.408 466.344 279.359 466.344 334.492ZM452.828 91.2378C455.372 91.2378 457.434 93.3045 457.434 95.8539V101.757C456.782 101.594 456.117 101.465 455.441 101.372C455.441 97.7804 455.441 98.1099 455.441 95.8539C455.441 92.99 453.699 91.8365 452.828 91.2378ZM452.828 109.744H456.989C459.782 109.744 465.678 110.521 467.385 115.801C465.646 113.782 460.3 109.744 452.828 109.744Z" stroke="#383838" stroke-width="2.001" stroke-linejoin="round"/>
</g>
<path d="M433.186 249.164C425.389 249.164 417.947 250.195 411.036 252.086C395.974 227.509 368.507 211.182 336.965 211.182C314.105 211.182 293.195 219.947 277.778 234.04C268.387 229.399 257.577 226.822 246.236 226.822C222.136 226.822 200.695 238.68 188.113 256.726C181.911 255.695 175.354 255.008 168.621 255.008C131.053 255.008 114.75 272.71 114.75 294.537C114.75 316.364 131.053 334.066 168.621 334.066C175.354 334.066 181.911 333.551 188.113 332.348C200.695 350.394 221.959 362.253 246.236 362.253C257.577 362.253 268.209 359.674 277.778 355.034C293.195 369.127 314.105 377.892 336.965 377.892C368.507 377.892 395.974 361.393 411.036 336.988C417.947 338.879 425.389 339.91 433.186 339.91C468.273 339.91 496.625 319.63 496.625 294.537C496.625 269.444 468.096 249.164 433.186 249.164Z" fill="white" stroke="#383838" stroke-width="2.001" stroke-miterlimit="10"/>
<path d="M190.707 211.515C186.062 211.515 181.628 212.131 177.511 213.261C168.538 198.574 152.174 188.818 133.383 188.818C119.765 188.818 107.308 194.056 98.1234 202.477C92.5283 199.704 86.0886 198.164 79.3323 198.164C64.975 198.164 52.2012 205.25 44.7058 216.034C41.0109 215.417 37.1049 215.007 33.0933 215.007C10.7128 215.007 1.00049 225.585 1.00049 238.628C1.00049 251.671 10.7128 262.249 33.0933 262.249C37.1049 262.249 41.0109 261.941 44.7058 261.222C52.2012 272.006 64.8694 279.092 79.3323 279.092C86.0886 279.092 92.4228 277.551 98.1234 274.778C107.308 283.2 119.765 288.438 133.383 288.438C152.174 288.438 168.538 278.578 177.511 263.995C181.628 265.125 186.062 265.741 190.707 265.741C211.61 265.741 228.5 253.622 228.5 238.628C228.5 223.633 211.504 211.515 190.707 211.515Z" fill="white" stroke="#383838" stroke-width="2.001" stroke-miterlimit="10"/>
<path d="M584.769 211.515C580.124 211.515 575.691 212.131 571.573 213.261C562.6 198.574 546.237 188.818 527.446 188.818C513.827 188.818 501.37 194.056 492.186 202.477C486.591 199.704 480.151 198.164 473.395 198.164C459.037 198.164 446.264 205.25 438.768 216.034C435.073 215.417 431.167 215.007 427.156 215.007C404.775 215.007 395.063 225.585 395.063 238.628C395.063 251.671 404.775 262.249 427.156 262.249C431.167 262.249 435.073 261.941 438.768 261.222C446.264 272.006 458.932 279.092 473.395 279.092C480.151 279.092 486.485 277.551 492.186 274.778C501.37 283.2 513.827 288.438 527.446 288.438C546.237 288.438 562.6 278.578 571.573 263.995C575.691 265.125 580.124 265.741 584.769 265.741C605.672 265.741 622.563 253.622 622.563 238.628C622.563 223.633 605.566 211.515 584.769 211.515Z" fill="white" stroke="#383838" stroke-width="2.001" stroke-miterlimit="10"/>
<path d="M76.1567 100.38C78.5265 100.38 83.8755 101.193 86.313 104.446C87.3286 100.38 89.3599 97.9404 93.4224 96.314" stroke="#383838" stroke-width="2.001" stroke-linejoin="bevel"/>
<path d="M90.3755 86.1487C92.3271 86.1487 96.7321 86.7586 98.7395 89.1983C99.5759 86.1487 101.249 84.319 104.594 83.0991" stroke="#383838" stroke-width="2.001" stroke-linejoin="bevel"/>
<path d="M490.532 84.1155C492.483 84.1155 496.888 84.7254 498.896 87.1651C499.732 84.1155 501.405 82.2858 504.75 81.0659" stroke="#383838" stroke-width="2.001" stroke-linejoin="bevel"/>
</svg>
