<svg width="101" height="74" viewBox="0 0 101 74" fill="none" xmlns="http://www.w3.org/2000/svg">
<path d="M30.7308 58.8746C30.7308 58.8746 20.9564 41.9882 23.7282 26.7551C29.4908 -4.95114 49.4774 -4.92682 53.9513 14.926C55.4344 21.5274 52.6261 28.9069 54.5834 35.1558L30.7308 58.8746V58.8746Z" fill="#FFDE00" stroke="#383838" stroke-width="2.5" stroke-miterlimit="10"/>
<path d="M2.18505 13.8199L1.21246 17.6981L4.31258 18.4762L23.6305 28.7126C23.6305 28.7126 26.451 25.9529 32.2622 26.3541L32.4567 26.3784L32.5053 25.9286C27.1318 23.5944 26.0984 18.8531 27.071 15.8137C27.6789 13.905 28.6393 11.4006 28.6393 11.4006C28.6393 11.4006 26.6577 13.3944 23.8007 14.3427C20.032 15.5949 2.18505 13.8078 2.18505 13.8078V13.8199Z" fill="#FF9538" stroke="#383838" stroke-width="2.5" stroke-linejoin="bevel"/>
<path d="M32.3835 14.7438C31.7514 17.5521 32.4565 20.1051 33.964 20.4455C35.2162 20.7251 36.6386 19.4 37.441 17.3211C37.6112 16.8713 37.441 16.3728 37.0641 16.0932L36.6264 15.765C35.8362 15.1693 36.128 13.9292 37.1006 13.7469C37.6598 13.6496 38.0732 13.139 37.9516 12.5919C37.7084 11.364 37.1127 10.4765 36.2617 10.2942C34.7542 9.95379 33.0157 11.9476 32.3714 14.7559L32.3835 14.7438Z" fill="#383838"/>
<path d="M19.6065 22.1839L3.74127 18.3301" stroke="#383838" stroke-width="2.5"/>
<path d="M99.4426 67.9076C100.306 55.1667 91.9294 34.1589 70.2408 33.4052C58.6914 33.004 54.5822 33.9158 39.3978 44.1644C17.9523 56.8201 38.5467 66.242 41.8414 67.9076C66.9583 77.4024 97.4245 69.5853 99.4426 67.9076Z" fill="#FFDE00"/>
<path d="M39.4106 44.2494C47.4709 36.8578 58.303 32.9553 69.8524 33.3565C91.541 34.1103 99.9539 53.7929 99.4554 68.1263C90.4469 72.4665 42.9727 78.375 30.864 58.8868C29.551 56.7836 29.089 56.0055 27.8611 52.7109" stroke="#383838" stroke-width="2.5" stroke-miterlimit="10"/>
<path d="M83.8935 55.7015C82.0456 59.9566 78.3012 62.619 74.7756 61.4276C71.2621 60.2362 71.6511 53.3795 71.6511 53.3795L71.4323 53.3309C69.1589 58.4855 64.8309 61.6708 62.2049 60.759C59.6884 59.8715 59.0684 56.0784 61.3418 50.9237C59.0684 56.0784 54.8741 59.2028 52.0171 58.2424C49.0386 57.2577 47.0813 51.8355 50.3759 45.4043" stroke="#383838" stroke-width="2.5" stroke-miterlimit="10"/>
</svg>
