<svg width="533" height="344" viewBox="0 0 533 344" fill="none" xmlns="http://www.w3.org/2000/svg">
<path d="M416.058 244.432C420.38 244.228 424.375 245.788 427.333 248.473C430.019 245.521 433.846 243.591 438.168 243.387C446.771 242.98 454.08 249.565 454.493 258.095C454.649 261.33 453.791 264.38 452.197 266.942C454.031 269.342 455.18 272.298 455.336 275.532C455.749 284.062 449.109 291.307 440.506 291.714C436.184 291.918 432.189 290.358 429.23 287.673C426.544 290.625 422.718 292.555 418.396 292.76C409.792 293.166 402.484 286.581 402.071 278.051C401.914 274.817 402.772 271.766 404.367 269.204C402.532 266.804 401.384 263.849 401.227 260.614C400.815 252.084 407.454 244.839 416.058 244.432Z" fill="#6FC2FF" stroke="#383838" stroke-width="2"/>
<rect x="368.613" y="115" width="108" height="75.4478" rx="9" stroke="#383838" stroke-width="2"/>
<circle cx="381.113" cy="127.5" r="1.5" fill="#383838"/>
<circle cx="389.113" cy="127.5" r="1.5" fill="#383838"/>
<circle cx="397.113" cy="127.5" r="1.5" fill="#383838"/>
<path d="M444.613 148.447H382.613" stroke="#383838" stroke-width="2"/>
<path d="M424.613 159.447H382.613" stroke="#383838" stroke-width="2"/>
<path d="M462.613 159.447H430.613" stroke="#383838" stroke-width="2"/>
<path d="M432.613 171.447H396.613" stroke="#383838" stroke-width="2"/>
<path d="M194.614 315C168.115 297 235.615 253.5 281.615 238L267.615 315H215.614H194.614Z" fill="white"/>
<path d="M215.614 315H194.614C168.115 297 235.615 253.5 281.615 238L267.615 315H215.614ZM215.614 315C218.781 310.167 222.614 299 212.614 293" stroke="#383838" stroke-width="2"/>
<path d="M259.093 315C258.354 277.409 269.586 245.892 278.113 230C294.204 194 340.817 206.667 362.113 217.5C406.504 240.613 421.016 280.684 423.621 315H259.093Z" fill="white" stroke="#383838" stroke-width="2"/>
<path d="M273.614 184.002C278.378 123.087 327.638 102.251 348.22 148.571C359.52 174 353.614 217.5 371.614 235L280.113 252C277.613 241.999 277.114 226.002 280.114 207.002L277.187 200.839C275.4 199.109 273.553 198.321 273.464 193.002C273.413 189.991 273.459 186.989 273.614 184.002Z" fill="white"/>
<path d="M274.729 159.023C274.337 166.302 277.202 172.387 281.119 172.602C284.598 172.79 287.729 168.317 288.675 162.248C288.755 161.698 288.473 161.153 287.965 160.892L282.678 158.174C281.632 157.643 281.734 156.119 282.837 155.714L287.35 154.075C287.978 153.852 288.355 153.179 288.172 152.53C287.096 148.862 285.032 146.361 282.549 146.235C278.631 146.02 275.137 151.757 274.745 159.035L274.729 159.023Z" fill="#383838"/>
<path d="M301.709 158.03C301.317 165.309 304.182 171.394 308.1 171.609C311.579 171.797 314.709 167.324 315.655 161.255C315.735 160.705 315.454 160.159 314.946 159.899L309.659 157.181C308.612 156.65 308.714 155.126 309.818 154.721L314.331 153.082C314.959 152.859 315.336 152.186 315.153 151.537C314.077 147.869 312.013 145.368 309.529 145.242C305.612 145.027 302.118 150.764 301.726 158.042L301.709 158.03Z" fill="#383838"/>
<path d="M280.113 252C277.613 241.999 277.114 226.002 280.114 207.002C278.576 198.194 273.612 201.81 273.464 193.002C273.413 189.991 273.459 186.989 273.614 184.002C278.378 123.087 327.638 102.251 348.22 148.571C359.52 174 353.614 217.5 371.614 235M273.464 193.002L280.114 207.002" stroke="#383838" stroke-width="2" stroke-miterlimit="10"/>
<path d="M322.762 189.528C307.002 189.204 300.397 180.844 294.664 174.908C290.945 179.586 282.242 190.151 249.019 192.773C233.733 192.207 215.24 193.175 215.998 202.047C217.008 213.878 252.624 209.339 267.768 204.874L273.474 205.675C290.453 222.096 307.325 215.758 321.879 201.943C330.739 202.806 332.148 189.72 322.762 189.528Z" fill="#FF9538"/>
<path d="M267.768 204.874L273.474 205.675C273.474 205.675 305.464 211.276 321.274 195.694M273.474 205.675C290.453 222.096 307.325 215.758 321.879 201.943C330.739 202.806 332.148 189.72 322.762 189.528C307.002 189.204 300.397 180.844 294.664 174.908C290.945 179.586 282.242 190.151 249.019 192.773M229.449 201.178C237.304 200.507 253.064 202.252 267.768 204.874M274.503 197.051C263.872 196.997 257.351 193.366 249.019 192.773M249.019 192.773C233.733 192.207 215.24 193.175 215.998 202.047C217.008 213.878 252.624 209.339 267.768 204.874" stroke="#383838" stroke-width="2"/>
<path fill-rule="evenodd" clip-rule="evenodd" d="M346.798 156.529L360.724 151.072C360.315 130.153 348.234 91.4948 303.176 104.219C305.812 104.107 309.005 104.402 312.453 105.288C326.307 108.846 344.279 121.943 346.798 156.529Z" fill="#16AA98"/>
<path d="M303.176 104.219C293.576 106.93 280.221 121.358 282.657 149C285.113 144 290.034 137.349 292.942 134C295.113 113.5 308.876 105.819 312.453 105.288C309.005 104.402 305.812 104.107 303.176 104.219Z" fill="#107367"/>
<path d="M303.176 104.219C348.234 91.4948 360.315 130.153 360.724 151.072L346.798 156.529C344.279 121.943 326.307 108.846 312.453 105.288M303.176 104.219C293.576 106.93 280.221 121.358 282.657 149C285.113 144 290.034 137.349 292.942 134C295.113 113.5 308.876 105.819 312.453 105.288M303.176 104.219C305.812 104.107 309.005 104.402 312.453 105.288" stroke="#383838" stroke-width="2"/>
<path d="M356.613 141C367.44 141 376.613 152.392 376.613 167C376.613 181.608 367.44 193 356.613 193C345.787 193 336.613 181.608 336.613 167C336.613 152.392 345.787 141 356.613 141Z" fill="#16AA98" stroke="#383838" stroke-width="2"/>
<path d="M363.613 146C367.327 146 370.803 148.207 373.394 152.007C375.981 155.801 377.613 161.099 377.613 167C377.613 172.901 375.981 178.199 373.394 181.993C370.803 185.793 367.327 188 363.613 188C359.899 188 356.424 185.793 353.833 181.993C351.246 178.199 349.613 172.901 349.613 167C349.613 161.099 351.246 155.801 353.833 152.007C356.424 148.207 359.899 146 363.613 146Z" fill="#16AA98" stroke="#383838" stroke-width="2"/>
<path d="M75.6133 315L455.613 315M291.613 329L413.613 329" stroke="#383838" stroke-width="2"/>
<path d="M242.506 308.244C243.609 305.67 246.14 304 248.941 304H322.285C325.086 304 327.618 305.67 328.72 308.244L331.613 315H239.613L242.506 308.244Z" fill="#A2A2A2" stroke="#383838" stroke-width="2"/>
<path d="M206.506 308.244C207.609 305.67 210.14 304 212.941 304H298.285C301.086 304 303.618 305.67 304.72 308.244L307.613 315H203.613L206.506 308.244Z" fill="#D9D9D9"/>
<path d="M294.659 310.111H272.283M307.613 315L304.72 308.244C303.618 305.67 301.086 304 298.285 304H212.941C210.14 304 207.609 305.67 206.506 308.244L203.613 315H307.613Z" stroke="#383838" stroke-width="2"/>
<rect x="1.34202" y="0.939693" width="147.263" height="111.261" rx="13" transform="matrix(1 0 0.34202 0.939693 72.2919 172.937)" fill="#A2A2A2" stroke="#383838" stroke-width="2"/>
<rect x="1.34202" y="0.939693" width="140.707" height="111.261" rx="13" transform="matrix(1 0 0.34202 0.939693 72.2919 172.937)" fill="#D7D7D7" stroke="#383838" stroke-width="2"/>
<path d="M163.814 230.167C160.228 233.677 153.688 233.079 149.206 228.833C144.723 224.586 143.996 218.298 147.582 214.788C151.167 211.279 157.707 211.876 162.19 216.123C163.123 217.007 163.894 217.98 164.496 218.998L170.218 218.998C172.181 218.998 174.102 220.558 174.509 222.482C174.916 224.406 173.655 225.966 171.692 225.966H168.833H165.973C165.708 227.553 164.995 229.011 163.814 230.167Z" fill="#818181"/>
<path d="M157.613 253H183.613L180.613 279H154.613L157.613 253Z" fill="#383838"/>
<path d="M133.56 302.421C135.43 298.681 149.923 267.826 156.935 252.865H183.116L159.74 302.421C157.559 306.629 156.374 315.044 169.09 315.044H140.572C132.157 315.044 131.222 307.096 133.56 302.421Z" fill="#D7D7D7"/>
<path d="M156.935 252.865C149.923 267.826 135.43 298.681 133.56 302.421C131.222 307.096 132.157 315.044 140.572 315.044C143.874 315.044 157.964 315.044 169.09 315.044M156.935 252.865H183.116M156.935 252.865H152.088M191.359 315.044C183.1 315.044 180.652 315.044 169.09 315.044M183.116 252.865L159.74 302.421C157.559 306.629 156.374 315.044 169.09 315.044M183.116 252.865H187.619" stroke="#383838" stroke-width="2"/>
<path d="M136.661 270.163L133.389 261.28M131.051 270.163L127.779 261.28M125.441 270.163L122.169 261.28M119.831 270.163L116.559 261.28" stroke="#383838" stroke-width="2"/>
<path d="M236.708 270.163L233.436 261.28M231.098 270.163L227.826 261.28M225.488 270.163L222.216 261.28M219.878 270.163L216.605 261.28" stroke="#383838" stroke-width="2"/>
<path d="M306.917 267.424C326.411 263.411 362.532 259.971 386.613 263.411L375.146 315C370.559 314.809 361.959 315.688 339.025 311.561C325.734 309.169 320.684 304.771 319.327 300.643C311.161 303.697 298.505 305.768 292.763 293.826C285.867 300.275 273.662 305.175 273.662 299.523C272.516 281.18 291.642 270.568 306.917 267.424Z" fill="white"/>
<path d="M386.613 263.411C362.532 259.971 326.411 263.411 306.917 267.424C291.642 270.568 272.516 281.18 273.662 299.523C273.662 306.975 294.877 296.084 297.17 287.486C299.463 278.888 289.902 286.559 292.01 292.071C299.463 311.561 322.971 299.523 326.411 297.23C329.851 294.938 329.278 288.059 322.398 290.925C320.031 291.911 310.357 306.402 339.025 311.561C361.959 315.688 370.559 314.809 375.146 315" stroke="#383838" stroke-width="2"/>
<rect x="201.723" y="27.11" width="79.78" height="57.78" rx="9.30307" fill="white"/>
<rect x="201.723" y="27.11" width="79.78" height="57.78" rx="9.30307" stroke="#383838" stroke-width="2.22"/>
<path d="M232.146 61.7631V64.6006L218.026 58.2838V55.48L232.146 49.0956V52.0007L221.302 56.865L232.146 61.7631ZM238.295 70.6473H235.559L245.119 42.3396H247.855L238.295 70.6473ZM265.233 58.2838L251.113 64.6006V61.7631L261.956 56.865L251.113 52.0007V49.0956L265.233 55.48V58.2838Z" fill="#383838"/>
<path d="M237.176 80.8398H252.158V95.6862L237.176 80.8398Z" fill="white"/>
<path d="M252.158 80.8398V95.6862L237.176 80.8398" stroke="#383838" stroke-width="2.22"/>
<path d="M106.409 220.804C105.913 224.486 95.8454 226.17 83.9225 224.565C71.9996 222.959 62.7362 218.673 63.232 214.99C63.7279 211.308 73.7953 209.624 85.7182 211.229C97.6411 212.835 106.905 217.121 106.409 220.804Z" fill="#FF7169"/>
<path d="M106.409 220.804C105.913 224.486 95.8454 226.17 83.9225 224.565C71.9996 222.959 62.7362 218.673 63.232 214.99L59.4047 243.414C59.33 243.969 59.4442 244.53 59.7902 244.968C61.3787 246.981 66.9799 252.773 79.8902 254.511C92.8005 256.25 99.7342 252.146 101.799 250.625C102.248 250.294 102.507 249.783 102.581 249.228L106.409 220.804Z" fill="#FF7169"/>
<path d="M106.409 220.804C105.913 224.486 95.8454 226.17 83.9225 224.565C71.9996 222.959 62.7362 218.673 63.232 214.99M106.409 220.804C106.905 217.121 97.6411 212.835 85.7182 211.229C73.7953 209.624 63.7279 211.308 63.232 214.99M106.409 220.804L102.581 249.228C102.507 249.783 102.248 250.294 101.799 250.625C99.7342 252.146 92.8005 256.25 79.8902 254.511C66.9799 252.773 61.3787 246.981 59.7902 244.968C59.4442 244.53 59.33 243.969 59.4047 243.414L63.232 214.99" stroke="#383838" stroke-width="2" stroke-miterlimit="10"/>
<path d="M211.496 152.25C212.199 151.35 213.529 151.197 214.419 151.912L219.481 155.984C220.316 156.656 220.453 157.849 219.793 158.693L215.791 163.81C215.088 164.709 213.757 164.863 212.868 164.147L207.806 160.075C206.971 159.404 206.834 158.211 207.493 157.367L211.496 152.25Z" fill="#FFDE00" stroke="#383838" stroke-width="2" stroke-miterlimit="10"/>
<path d="M386.579 71.567C387.135 71.1101 387.974 71.1973 388.423 71.7587L390.98 74.9541C391.402 75.4809 391.324 76.2336 390.803 76.6624L387.643 79.2631C387.087 79.7201 386.248 79.6328 385.799 79.0714L383.242 75.8761C382.82 75.3493 382.898 74.5966 383.419 74.1678L386.579 71.567Z" fill="#FFDE00" stroke="#383838" stroke-width="2" stroke-miterlimit="10"/>
<path d="M138.835 113.338C139.38 115.284 137.883 117.201 135.863 117.145L119.732 116.699C117.272 116.631 115.936 113.793 117.45 111.854L129.235 96.7586C130.749 94.819 133.826 95.427 134.489 97.7968L138.835 113.338Z" fill="#6FC2FF" stroke="#383838" stroke-width="2" stroke-miterlimit="10"/>
</svg>
